<?xml version="1.0" standalone="no"?>
<!DOCTYPE svg PUBLIC "-//W3C//DTD SVG 20010904//EN"
 "http://www.w3.org/TR/2001/REC-SVG-20010904/DTD/svg10.dtd">
<svg version="1.0" xmlns="http://www.w3.org/2000/svg"
 width="506.000000pt" height="506.000000pt" viewBox="0 0 506.000000 506.000000"
 preserveAspectRatio="xMidYMid meet">
<metadata>
Created by potrace 1.11, written by Peter Selinger 2001-2013
</metadata>
<g transform="translate(0.000000,506.000000) scale(0.100000,-0.100000)"
fill="#000000" stroke="none">
<path d="M0 2530 l0 -2530 2530 0 2530 0 0 2530 0 2530 -2530 0 -2530 0 0
-2530z m1699 2218 c-12 -22 -11 -22 7 -8 18 15 18 14 0 -15 -19 -30 -19 -30 1
-12 22 19 44 24 25 5 -21 -21 -13 -27 29 -24 30 3 37 1 25 -6 -24 -14 -19 -28
10 -28 23 0 25 -2 14 -15 -8 -10 -16 -12 -19 -6 -4 6 -12 6 -21 1 -12 -8 -11
-10 5 -10 17 0 17 -2 5 -10 -20 -13 -4 -13 21 0 13 7 19 7 19 0 0 -5 8 -10 18
-10 10 -1 3 -7 -15 -15 -18 -8 -33 -15 -33 -17 0 -2 20 -2 44 0 51 4 54 -5 18
-56 -29 -39 -22 -41 14 -4 15 15 23 21 19 13 -6 -11 -4 -13 11 -7 16 6 16 4
-4 -17 -12 -13 -22 -27 -22 -32 0 -5 6 -2 13 7 6 9 26 24 42 34 29 18 30 18
15 -1 -14 -17 -13 -18 3 -12 11 4 16 3 12 -3 -3 -6 -12 -10 -19 -10 -8 0 -19
-7 -26 -15 -8 -9 -9 -15 -2 -15 6 0 14 5 17 11 4 5 12 8 18 6 7 -2 21 3 31 12
16 13 18 13 11 1 -4 -8 -13 -21 -19 -29 -24 -31 -14 -40 22 -19 34 19 36 19
22 2 -23 -29 -43 -67 -31 -59 6 3 11 1 11 -5 0 -5 14 4 31 22 l31 33 -23 -40
-23 -40 22 19 c14 12 22 15 22 7 0 -8 13 -5 38 10 l37 22 -35 -39 c-19 -21
-26 -31 -14 -21 25 21 41 22 24 2 -11 -13 -10 -14 4 -9 17 7 22 -6 7 -21 -6
-6 -4 -15 6 -24 12 -11 14 -11 12 0 -4 21 11 59 24 59 8 0 8 -3 -1 -12 -18
-18 -14 -32 5 -17 18 15 18 15 -3 -35 -6 -15 12 -16 35 -2 10 6 12 4 7 -12 -8
-23 12 -25 38 -3 14 12 16 11 10 -5 -7 -18 -6 -18 16 1 l24 20 -17 -27 c-23
-37 -21 -45 4 -22 22 19 22 19 14 -6 l-7 -25 17 23 c9 12 21 22 27 22 6 0 4
-8 -5 -18 -27 -30 -20 -38 9 -11 l27 24 -5 -28 c-5 -27 -5 -27 14 -10 19 17
19 16 8 -12 -8 -25 -8 -27 2 -14 7 8 21 18 30 22 13 4 15 2 11 -11 -6 -15 -4
-15 15 1 20 19 21 18 15 -5 -3 -15 -2 -19 4 -10 12 17 43 5 36 -14 -13 -36 31
0 47 38 10 22 10 22 7 -5 -3 -15 0 -30 4 -33 5 -3 9 2 9 11 0 9 5 13 11 9 6
-3 9 -17 6 -31 -2 -13 -2 -21 1 -18 3 3 14 -3 24 -12 18 -16 18 -16 12 0 -3 9
-10 17 -15 17 -5 0 -9 10 -9 23 1 20 2 20 11 4 8 -14 14 -16 25 -6 11 9 15 6
20 -20 7 -34 24 -42 24 -11 0 11 7 20 15 20 9 0 12 -6 9 -15 -4 -8 -1 -15 5
-15 6 0 11 6 11 14 0 8 7 16 14 19 10 4 13 1 9 -9 -3 -7 0 -14 6 -14 6 0 13
11 17 25 9 35 26 20 20 -18 -3 -26 -2 -29 7 -15 10 15 12 15 24 0 11 -15 13
-10 14 33 1 35 3 41 6 20 7 -46 43 -63 43 -20 0 31 16 33 24 3 4 -17 8 -20 14
-10 10 16 27 0 34 -33 5 -19 5 -19 13 -2 5 12 1 24 -10 37 -20 22 -20 22 13
39 18 10 22 9 22 -4 0 -8 5 -15 10 -15 6 0 10 7 10 17 0 13 4 11 21 -8 13 -15
20 -18 19 -9 -1 8 -2 24 -1 35 1 17 3 18 12 5 8 -11 9 -6 5 20 -5 30 -5 32 4
11 9 -20 13 -21 26 -10 13 10 17 10 25 -2 8 -12 10 -12 19 1 8 13 10 13 10 -2
0 -9 4 -19 9 -22 4 -3 7 7 5 22 -2 26 -2 26 12 8 8 -11 14 -24 14 -30 0 -5 3
-7 6 -4 3 3 -2 23 -10 43 -23 54 -19 68 5 18 21 -45 35 -58 24 -22 -5 15 -4
19 4 15 6 -4 11 -2 11 5 0 7 7 4 16 -7 13 -16 15 -16 10 -1 -3 9 -1 17 4 17 6
0 10 10 10 21 0 18 2 19 15 9 22 -18 20 8 -2 32 -9 10 -11 18 -5 18 6 0 14 -4
17 -10 3 -5 15 -15 26 -21 20 -10 20 -10 4 15 -23 35 -13 33 25 -5 30 -31 55
-34 30 -4 -18 21 -8 28 24 16 33 -13 33 -6 0 44 l-27 40 32 -29 c17 -17 31
-25 31 -18 0 6 -4 14 -10 17 -5 3 -10 11 -10 17 0 6 8 4 18 -5 26 -24 50 -23
29 1 -10 10 -17 21 -17 24 0 8 27 4 36 -5 4 -4 12 -7 18 -7 6 0 5 5 -2 12 -21
21 -13 29 13 12 35 -23 31 -9 -7 26 -21 19 -26 28 -14 23 15 -5 17 -3 11 8 -5
8 -5 11 1 6 5 -5 9 -14 9 -19 0 -6 6 -13 14 -16 8 -3 11 0 7 7 -4 6 -2 11 4
11 7 0 9 8 5 21 -5 15 -4 19 4 15 6 -4 11 -2 11 4 0 6 5 8 10 5 6 -3 10 -11
10 -16 0 -6 -4 -7 -10 -4 -5 3 -10 2 -10 -4 0 -5 5 -13 10 -16 6 -3 10 -1 10
6 0 10 3 10 12 1 23 -23 29 -12 9 16 -31 43 -35 67 -11 69 11 1 22 -2 25 -8 4
-5 11 -9 16 -9 6 0 3 7 -5 16 -9 8 -16 21 -16 27 0 8 3 8 8 2 12 -17 47 -41
38 -27 -6 9 1 11 26 8 33 -4 33 -4 6 7 -32 12 -38 32 -8 22 28 -9 25 1 -12 36
-28 27 -29 29 -7 16 20 -12 29 -13 38 -4 8 8 11 8 11 -2 0 -19 28 5 52 44 21
35 24 22 4 -17 -8 -16 -11 -28 -7 -28 4 0 13 11 19 25 6 14 16 25 22 25 7 0 7
-7 0 -21 -17 -31 -4 -35 16 -4 9 14 26 31 38 37 20 10 20 10 5 -8 -30 -35 -34
-48 -14 -40 17 6 18 5 3 -11 -8 -10 -18 -31 -22 -47 l-7 -29 25 17 c15 9 26
12 26 6 0 -7 7 -7 23 0 21 11 21 10 3 -4 -10 -9 -23 -13 -29 -9 -6 3 -7 1 -3
-6 4 -6 1 -23 -8 -36 -14 -21 -14 -24 1 -29 8 -4 23 -1 32 6 12 9 11 7 -2 -9
-18 -21 -18 -21 0 -26 16 -4 15 -6 -4 -12 -13 -4 -23 -11 -23 -16 0 -9 28 -1
48 14 9 7 11 6 6 -6 -3 -8 -12 -18 -20 -21 -8 -3 -14 -10 -14 -15 0 -6 16 -1
35 10 19 12 40 18 47 16 9 -4 8 -6 -3 -6 -19 -1 -75 -58 -66 -68 4 -3 7 -2 7
4 0 6 9 13 20 16 11 3 20 2 20 -2 0 -3 -9 -12 -20 -19 -25 -15 -26 -32 -2 -32
13 0 14 -2 3 -9 -7 -5 -11 -13 -7 -19 3 -6 2 -13 -4 -17 -22 -14 -8 -23 22
-14 45 13 48 11 13 -8 -38 -20 -65 -43 -65 -56 0 -6 10 -2 22 9 21 19 21 19
14 -1 -13 -34 -12 -40 7 -38 12 1 17 -4 13 -14 -5 -11 0 -13 17 -8 19 5 20 5
4 -5 -13 -8 -15 -15 -8 -24 12 -14 4 -28 -24 -44 -19 -11 -18 -11 8 -12 42 0
32 -17 -15 -24 -35 -6 -40 -9 -26 -17 12 -7 24 -6 37 1 11 5 22 6 25 1 3 -4
-14 -16 -38 -26 -27 -11 -49 -28 -56 -44 -11 -24 -9 -24 23 8 20 18 40 30 47
26 7 -5 4 -12 -10 -25 -11 -9 -20 -22 -20 -27 0 -6 -9 -17 -21 -24 -20 -14
-20 -15 -2 -39 29 -38 23 -53 -27 -69 -41 -13 -43 -15 -20 -21 24 -6 23 -7
-20 -33 -25 -15 -39 -27 -32 -27 7 0 29 11 49 25 37 24 60 26 32 2 -8 -6 -28
-27 -44 -46 -30 -33 -30 -33 -5 -26 14 4 27 12 28 16 6 14 29 10 36 -6 3 -8 2
-15 -2 -15 -5 0 -17 -7 -28 -15 -18 -14 -17 -14 13 -15 23 0 31 4 27 14 -3 7
6 21 20 30 30 19 31 18 12 -20 -13 -25 -13 -29 2 -41 16 -13 15 -14 -3 -9 -61
14 -84 16 -106 7 l-24 -10 25 -1 c14 0 32 -5 40 -10 15 -9 8 -10 -97 -14 -26
-1 -44 -16 -19 -16 10 0 14 -5 10 -11 -4 -7 0 -9 14 -5 11 4 32 1 48 -6 l28
-13 -34 -6 c-38 -6 -28 -14 33 -24 41 -7 49 -22 15 -27 -29 -4 -25 -22 4 -23
12 0 23 -7 26 -15 4 -13 3 -13 -11 -2 -11 9 -21 11 -33 4 -18 -10 -51 -5 -70
9 -7 6 -32 0 -63 -12 -54 -23 -65 -22 -55 4 3 9 13 14 22 10 13 -4 14 -3 3 5
-11 8 -11 15 3 42 9 18 16 39 16 47 0 7 9 22 20 33 11 11 16 20 11 20 -5 0 -1
28 10 63 10 34 19 69 19 79 0 11 7 15 23 12 20 -4 20 -4 2 4 -31 14 -51 3 -69
-36 -17 -35 -31 -59 -92 -152 -148 -223 -440 -393 -734 -425 -96 -11 -298 -8
-371 5 -348 62 -596 267 -709 590 -40 113 -55 111 -35 -5 44 -252 170 -476
345 -616 156 -124 365 -194 620 -206 67 -3 118 -10 122 -17 5 -7 8 -4 8 7 0
13 8 17 33 17 17 0 49 3 70 6 33 6 37 4 31 -10 -4 -11 -9 -14 -13 -7 -5 8 -13
6 -27 -5 -17 -14 -17 -15 -1 -10 20 6 37 -22 20 -33 -14 -9 -23 -50 -12 -57 5
-3 9 -10 9 -16 0 -6 -8 -3 -18 7 -12 13 -16 31 -14 54 3 34 2 35 -12 17 -16
-20 -16 -20 -17 0 -1 10 -1 25 0 33 2 7 -2 10 -8 7 -5 -4 -9 -14 -9 -24 0 -9
0 -21 -2 -27 -5 -22 1 -34 15 -29 8 4 15 1 15 -5 0 -6 -5 -11 -10 -11 -6 0
-10 -6 -9 -12 1 -7 -3 -24 -9 -38 -11 -25 -11 -25 -11 8 -1 22 -6 32 -17 32
-10 0 -14 -6 -10 -15 3 -8 2 -15 -2 -15 -11 0 -47 93 -44 115 2 16 0 17 -8 5
-6 -10 -10 -11 -10 -2 0 6 -5 12 -10 12 -6 0 -4 -12 4 -29 14 -26 14 -32 0
-60 -19 -38 -28 -40 -20 -3 5 20 4 23 -4 12 -8 -13 -11 -13 -19 -1 -7 11 -11
10 -20 -5 -11 -16 -12 -15 -7 12 6 38 -16 73 -44 71 -11 -1 -20 -6 -20 -12 0
-21 13 -25 24 -9 10 13 12 7 11 -28 -2 -61 -4 -68 -15 -68 -5 0 -8 14 -6 30 3
30 3 30 -15 14 -11 -9 -19 -25 -19 -35 0 -10 -4 -21 -10 -24 -6 -3 -10 5 -10
19 0 14 4 27 9 31 15 8 -8 63 -24 61 -19 -3 -32 -16 -16 -16 8 0 7 -7 -4 -23
-8 -13 -12 -26 -9 -30 3 -3 -2 -30 -12 -59 -25 -74 -25 -89 -2 -77 31 17 47
-10 27 -46 -3 -5 -9 -19 -12 -30 -7 -20 -7 -20 8 -1 8 11 18 17 21 13 4 -4 13
2 21 13 11 16 17 17 27 7 8 -6 12 -16 9 -21 -3 -4 1 -12 8 -17 15 -9 52 18 43
32 -3 5 0 9 5 9 6 0 11 -5 11 -12 0 -20 13 1 14 24 1 14 7 22 15 20 8 -2 18 3
23 10 6 8 7 -8 3 -43 -5 -43 -3 -58 8 -62 10 -4 13 1 9 20 -8 40 29 98 56 88
9 -3 11 6 7 38 -5 39 -4 38 10 -12 9 -30 20 -60 26 -68 15 -17 32 -5 26 19 -3
12 -1 18 6 15 14 -4 37 17 37 34 0 9 4 8 15 -1 19 -16 19 -28 1 -26 -8 0 -15
-3 -15 -9 -1 -5 7 -10 17 -11 9 -1 26 -4 37 -9 11 -4 33 -12 48 -17 31 -12 60
3 36 17 -7 5 -10 4 -6 -2 4 -7 -9 -6 -36 2 -23 7 -43 19 -45 28 -5 23 12 28
34 11 18 -14 18 -15 -6 -10 -18 4 -16 1 9 -10 42 -19 48 -13 25 22 -13 19 -15
29 -7 31 7 3 10 12 7 21 -4 11 2 8 16 -8 13 -14 17 -26 11 -28 -26 -9 1 -49
32 -49 12 0 16 6 11 19 -6 19 20 26 31 8 8 -13 76 -13 95 1 11 8 12 12 3 16
-7 2 -15 4 -19 3 -8 -2 -33 32 -33 45 0 6 6 1 14 -9 14 -19 15 -18 21 12 4 18
10 32 14 32 13 0 20 -28 8 -32 -7 -3 -8 -10 -4 -17 7 -11 10 -11 18 0 7 10 8
8 5 -8 -4 -18 -1 -23 14 -23 17 0 18 3 9 20 -12 23 -5 26 15 6 8 -7 11 -16 8
-20 -4 -3 -1 -6 5 -6 7 0 12 4 12 9 0 5 8 8 18 6 9 -2 23 -4 31 -4 10 -1 11
-4 2 -15 -6 -7 -22 -11 -35 -9 -13 3 -26 1 -29 -4 -6 -10 56 -8 75 2 10 6 10
5 1 -5 -7 -7 -35 -15 -62 -16 -41 -2 -49 0 -44 13 5 13 3 13 -15 4 -34 -18
-26 -31 21 -31 l42 -1 -40 -19 -40 -20 35 6 c19 3 39 10 45 15 5 5 20 9 34 9
28 0 19 -15 -14 -23 -15 -3 -12 -5 8 -6 20 -1 31 -7 34 -21 6 -22 19 -26 25
-8 3 7 7 6 11 -5 4 -11 1 -17 -8 -17 -8 0 -15 -4 -15 -9 0 -5 15 -8 33 -7 37
3 57 -2 57 -15 0 -5 -17 -9 -37 -10 -21 0 -32 -3 -25 -6 6 -2 10 -9 6 -14 -3
-5 -1 -9 5 -9 5 0 13 5 16 10 3 6 11 10 18 10 6 0 4 -7 -6 -17 -10 -10 -40
-19 -79 -22 l-63 -6 95 -6 c61 -3 100 -2 110 5 13 10 13 9 0 -8 -11 -15 -12
-20 -2 -23 22 -8 13 -25 -10 -19 -13 3 -17 3 -10 0 6 -3 12 -12 12 -19 0 -23
20 -28 41 -9 10 9 22 15 25 11 3 -3 -4 -11 -16 -17 -13 -7 -19 -17 -16 -27 5
-12 1 -14 -14 -10 -18 5 -19 3 -8 -10 11 -13 14 -13 28 3 9 11 22 20 30 22 11
3 11 0 0 -13 -11 -13 -9 -18 10 -35 13 -11 27 -20 32 -20 5 0 6 -5 3 -11 -5
-7 -14 -6 -28 4 -12 8 -35 17 -52 21 l-30 7 33 -21 c18 -11 39 -20 47 -20 8 0
15 -5 15 -11 0 -6 9 -8 23 -3 12 3 19 3 14 -1 -4 -5 -17 -9 -30 -11 -12 -1
-23 -3 -25 -3 -2 -1 4 -8 13 -17 15 -15 17 -15 35 1 24 22 27 13 3 -10 -13
-13 -13 -19 -4 -25 11 -6 11 -9 1 -15 -9 -5 -4 -12 16 -21 16 -7 23 -13 15
-13 -7 -1 -29 8 -47 20 -32 19 -54 19 -54 -2 0 -5 9 -9 19 -9 11 0 23 -4 26
-10 3 -5 2 -10 -4 -10 -7 0 -7 -8 1 -25 6 -14 16 -25 21 -25 6 0 8 -3 5 -6 -4
-3 -16 0 -28 6 -30 16 -57 5 -40 -16 7 -8 19 -13 27 -10 15 6 43 -3 43 -13 0
-10 -59 -7 -82 3 -33 15 -44 0 -13 -17 17 -9 25 -16 18 -17 -6 0 -13 -8 -16
-18 -3 -14 -6 -13 -15 8 -10 23 -11 24 -11 3 -1 -17 -6 -20 -23 -16 -19 5 -21
3 -11 -7 10 -11 7 -17 -17 -32 -17 -10 -38 -18 -48 -19 -9 0 -1 -5 18 -11 19
-6 29 -13 22 -15 -6 -3 -9 -10 -5 -16 4 -7 9 -21 10 -31 3 -18 2 -18 -15 -3
-10 9 -24 17 -31 17 -6 0 -25 7 -41 15 -17 9 -30 11 -30 7 0 -5 23 -19 50 -30
28 -12 50 -25 51 -29 0 -4 2 -16 4 -25 2 -10 -3 -18 -10 -18 -20 0 -28 18 -9
22 10 2 5 7 -15 15 -19 7 -29 7 -25 1 4 -7 -2 -7 -17 -3 -21 7 -22 6 -11 -8 8
-9 23 -17 35 -19 18 -2 22 -10 23 -40 1 -22 -3 -36 -10 -35 -6 1 -10 -6 -8
-15 2 -12 -4 -18 -18 -18 -12 0 -20 -7 -20 -17 0 -13 -4 -11 -20 7 -24 27 -25
40 -6 40 10 0 6 9 -12 28 -29 31 -92 77 -92 68 0 -4 15 -20 33 -36 l32 -30
-30 6 c-16 4 -34 11 -40 17 -7 7 -5 7 5 2 13 -8 13 -7 1 8 -17 21 -43 23 -35
2 4 -8 1 -15 -5 -15 -13 0 -2 -29 21 -54 22 -24 23 -37 3 -29 -13 5 -14 2 -4
-21 7 -14 16 -26 21 -26 4 0 8 -3 8 -7 0 -5 -19 -9 -43 -10 -34 -2 -38 0 -19
7 24 10 30 30 8 30 -17 0 -37 23 -41 47 -4 26 5 36 21 22 19 -16 19 17 -1 51
l-15 25 6 -30 c5 -27 4 -28 -9 -12 -8 9 -18 17 -23 17 -4 0 -3 -5 4 -12 19
-19 14 -33 -5 -16 -10 9 -23 13 -30 11 -6 -2 -14 4 -17 14 -3 10 -4 6 -2 -9 3
-24 0 -27 -18 -24 -20 4 -50 -17 -40 -27 6 -6 -28 -77 -37 -77 -11 0 -15 21
-14 82 0 31 -4 54 -9 51 -5 -4 -6 6 -2 20 6 25 5 26 -19 17 -24 -9 -31 0 -26
33 2 16 -28 5 -42 -16 -8 -12 -18 -19 -22 -16 -3 4 9 21 27 37 18 17 29 34 25
38 -4 4 -16 -1 -28 -11 -17 -17 -22 -17 -29 -5 -13 20 -12 30 1 30 5 0 8 -4 4
-9 -3 -5 -1 -12 4 -15 5 -3 8 11 8 33 -2 29 -6 37 -16 33 -10 -4 -13 -1 -8 11
4 9 10 25 13 35 5 16 5 16 -6 0 -17 -27 -31 -22 -20 7 7 17 6 25 -1 25 -6 0
-8 7 -5 16 5 14 4 15 -9 4 -14 -11 -19 -7 -16 13 0 4 -3 7 -9 7 -12 0 -13 -13
-3 -24 4 -3 8 -15 10 -26 2 -15 -3 -20 -21 -20 -14 0 -28 4 -31 10 -3 5 -16
15 -28 21 -19 9 -19 8 3 -10 28 -23 22 -38 -9 -21 -14 7 -21 7 -21 1 0 -6 18
-20 40 -31 41 -21 54 -18 23 6 -10 7 -13 14 -7 14 6 0 19 -9 29 -20 14 -16 15
-20 4 -21 -57 -6 -89 -4 -118 8 -30 12 -32 11 -21 -2 7 -9 10 -18 7 -22 -4 -3
-2 -12 5 -20 8 -10 8 -12 -4 -8 -9 4 -18 -1 -22 -10 -3 -9 -2 -14 3 -11 4 3
17 -1 27 -9 10 -8 14 -15 7 -15 -7 0 -10 -9 -8 -20 6 -29 -21 -36 -48 -14 -12
9 -3 -1 21 -24 23 -23 42 -44 42 -47 0 -14 -22 -2 -49 28 -20 21 -31 27 -31
17 -1 -10 -7 -7 -22 10 -14 16 -19 19 -15 8 10 -28 -11 -21 -44 14 -31 35 -34
31 -20 -20 13 -43 -2 -33 -39 26 l-29 47 5 -54 c4 -46 3 -52 -9 -43 -12 10
-17 4 -30 -30 -8 -24 -18 -55 -21 -70 -4 -16 -11 -28 -17 -28 -16 0 -52 21
-71 41 -24 24 -23 32 1 17 11 -7 18 -16 15 -20 -3 -4 1 -5 8 -3 8 3 14 15 15
25 1 13 -2 18 -9 14 -7 -5 -8 -2 -4 5 5 7 14 10 22 7 8 -3 14 -2 14 2 0 4 3
18 7 31 5 20 3 23 -12 18 -13 -6 -16 -3 -11 9 3 9 9 27 12 40 5 19 3 23 -10
18 -9 -3 -19 -17 -22 -30 -3 -13 -12 -28 -19 -34 -11 -9 -12 -6 -8 12 4 13 13
33 21 46 12 18 12 27 2 52 -13 31 -30 32 -30 1 0 -10 -9 -26 -20 -36 -11 -10
-20 -26 -20 -36 0 -10 -10 -25 -22 -33 -28 -20 -42 -20 -34 -1 3 8 0 14 -7 12
-7 -1 -11 6 -9 17 2 10 -1 15 -6 12 -6 -3 -12 -1 -14 5 -5 15 -68 22 -68 8 0
-6 -9 -9 -20 -6 -11 3 -23 1 -26 -4 -7 -12 -24 -11 -24 1 0 6 16 20 35 32 20
11 33 23 30 26 -6 6 -52 -16 -80 -39 -11 -9 -29 -19 -40 -23 -20 -6 -19 -5 45
47 8 7 26 20 40 30 13 9 19 17 13 17 -7 0 -15 -4 -18 -10 -8 -13 -42 -13 -47
0 -2 7 -20 5 -51 -4 -26 -8 -44 -10 -41 -5 9 14 61 39 68 32 3 -4 6 -1 6 5 0
16 -19 15 -53 -3 -15 -8 -25 -10 -22 -5 3 4 0 10 -7 12 -6 2 4 14 23 27 32 21
33 22 7 17 -15 -3 -30 -2 -33 4 -3 6 1 7 9 4 9 -3 16 -1 16 5 0 6 -5 11 -12
11 -6 0 -9 3 -6 6 4 3 17 0 30 -7 l23 -12 -20 23 -20 23 45 -6 c43 -6 44 -5
14 6 -34 13 -89 51 -64 44 9 -3 24 1 34 8 17 13 17 14 -1 24 -15 9 -13 10 12
5 17 -3 25 -2 19 3 -18 13 -13 43 8 43 16 0 17 3 7 21 -10 19 -9 20 13 14 l23
-6 -24 19 -23 19 32 -5 c23 -3 31 -1 26 7 -4 6 -1 11 8 11 8 0 18 4 21 10 4 6
-1 7 -12 3 -10 -3 -15 -2 -10 2 4 5 -3 20 -15 34 l-23 25 29 -18 c25 -16 28
-16 23 -2 -5 12 0 16 19 16 l26 0 -23 19 -24 19 27 -5 c14 -3 34 0 45 6 15 10
14 10 -9 5 -18 -4 -28 -2 -28 5 0 6 7 11 16 11 8 0 12 5 9 10 -3 6 4 10 17 11
21 1 20 2 -7 14 -27 13 -28 14 -7 15 14 0 21 4 16 11 -4 8 -1 8 13 1 12 -7 25
-7 34 -1 11 7 9 9 -8 9 -12 0 -25 5 -28 10 -3 6 4 10 16 10 22 0 22 0 3 21
-19 21 -19 22 3 15 14 -4 33 -1 50 9 l28 16 -38 -4 -37 -3 27 23 c16 12 32 22
36 23 5 0 6 4 2 9 -7 13 20 27 68 36 20 4 37 12 37 17 0 11 -26 4 -89 -23 -34
-15 -41 -16 -31 -4 7 9 10 18 6 22 -7 7 60 42 82 43 6 0 12 -5 12 -12 0 -6 7
-4 18 5 24 22 33 22 25 0 -5 -13 -2 -15 16 -10 20 5 22 3 18 -19 -3 -16 0 -23
7 -21 6 2 10 14 9 26 -2 13 3 21 12 21 8 0 15 6 15 13 0 8 6 14 14 14 11 0 10
-7 -5 -34 l-19 -33 23 4 c12 3 25 5 30 5 4 1 7 6 7 11 0 6 -5 9 -11 8 -6 -2
-14 3 -16 10 -3 7 1 11 7 10 17 -4 51 94 56 157 2 35 1 45 -6 35 -5 -8 -10
-21 -10 -27 0 -17 -32 -53 -47 -53 -6 0 -15 -5 -19 -12 -5 -8 -2 -9 9 -5 16 6
16 4 2 -23 -16 -31 -29 -41 -19 -15 4 8 0 32 -9 53 -8 20 -12 43 -9 51 3 9 0
11 -7 6 -7 -4 -10 -13 -7 -21 3 -8 0 -11 -8 -8 -15 6 -10 44 5 44 5 0 9 9 9
19 0 11 6 21 13 24 7 2 8 8 3 13 -5 5 -11 4 -13 -3 -8 -22 -31 -14 -37 12 -8
31 -17 32 -35 4 -11 -19 -11 -21 1 -16 30 11 41 -35 24 -96 -7 -22 -11 -25
-18 -15 -7 10 -10 10 -19 -4 -5 -10 -19 -23 -30 -29 -19 -9 -19 -9 -10 10 6
11 19 24 28 30 14 7 15 12 5 24 -9 10 -10 17 -3 22 16 9 -11 34 -29 27 -21 -8
-39 -33 -40 -54 0 -10 -4 -18 -10 -18 -12 0 -12 2 0 34 7 21 6 26 -10 31 -17
5 -18 9 -7 28 7 12 16 25 22 29 5 4 6 11 1 15 -5 4 -13 -1 -20 -11 -6 -11 -20
-29 -31 -40 -11 -12 -27 -34 -35 -49 -11 -23 -12 -30 -1 -36 9 -6 10 -11 2
-15 -5 -4 -19 -1 -30 5 -19 12 -18 13 3 30 11 9 18 21 14 25 -5 4 -18 -1 -30
-12 -13 -10 -18 -12 -11 -5 6 7 9 21 6 30 -3 12 -2 13 4 3 7 -10 14 -8 28 8
18 20 18 20 1 14 -16 -6 -17 -4 -8 12 9 17 7 20 -11 21 -12 1 -27 -3 -34 -9
-7 -6 -13 -7 -13 -3 0 4 10 15 23 26 l22 19 -26 -9 c-15 -5 -29 -8 -32 -5 -2
2 -10 -4 -18 -13 -13 -17 -13 -17 5 -3 17 13 19 13 14 0 -5 -16 -48 -23 -48
-8 0 5 -9 4 -20 -2 -16 -9 -18 -8 -13 6 3 9 13 14 23 11 10 -2 25 4 35 16 13
15 19 17 25 7 5 -8 10 -8 14 -2 10 16 -20 22 -41 7 -11 -8 -32 -12 -46 -11
-15 2 -30 -1 -34 -7 -3 -6 -1 -7 5 -3 7 4 12 3 12 -3 0 -6 -9 -15 -19 -20 -16
-9 -18 -8 -14 9 7 25 26 41 55 44 25 2 32 10 25 29 -3 8 -10 6 -26 -7 -11 -11
-21 -16 -21 -12 0 4 -10 1 -22 -5 -23 -12 -23 -12 -4 9 10 12 22 20 26 17 4
-2 7 2 7 10 0 19 -42 -3 -102 -55 -53 -46 -71 -53 -29 -12 48 46 88 96 86 105
-2 5 3 7 10 4 7 -2 12 -9 11 -15 -3 -15 55 9 62 26 4 12 0 11 -19 -2 -22 -14
-28 -14 -53 -1 -15 8 -34 15 -40 15 -21 0 -14 -17 10 -25 21 -7 21 -7 2 -12
-10 -3 -21 0 -23 6 -3 8 -11 6 -26 -6 l-21 -18 19 23 c21 25 19 26 -21 12
l-28 -10 29 24 c17 14 33 23 36 21 4 -3 18 7 31 22 25 27 20 26 -45 -15 -21
-13 -47 -22 -57 -19 -11 3 -22 1 -25 -4 -3 -5 -10 -9 -17 -9 -22 0 9 21 39 26
16 3 35 11 43 18 11 12 8 14 -15 12 -16 -1 -35 -5 -42 -10 -7 -4 -15 -6 -18
-4 -2 3 13 17 33 32 38 27 38 27 8 20 -27 -7 -29 -6 -17 9 12 14 11 15 -17 7
-17 -4 -35 -11 -41 -15 -5 -3 -10 -1 -10 4 0 6 5 11 10 11 6 0 10 5 10 11 0 5
-5 7 -11 4 -17 -11 -69 -17 -69 -8 0 4 14 17 30 28 16 11 30 23 30 28 0 4 8 7
18 8 11 1 8 4 -8 8 -29 9 -58 2 -40 -9 8 -5 7 -10 -4 -19 -10 -9 -16 -9 -21
-1 -5 8 -11 8 -20 0 -9 -7 -16 -6 -25 5 -11 13 -10 14 1 10 8 -3 23 1 34 9 19
15 19 15 -5 16 -23 1 -22 2 14 24 35 22 37 25 19 34 -12 7 -25 7 -34 1 -11 -7
-8 -9 11 -9 19 -1 22 -3 10 -9 -26 -15 -90 -24 -90 -13 0 6 -8 13 -17 15 -10
3 -2 5 17 6 39 2 78 25 61 36 -6 3 -32 3 -59 0 -43 -7 -45 -6 -27 8 16 13 17
17 6 31 -11 13 -11 16 0 17 11 0 11 2 1 6 -10 4 -9 8 5 19 17 12 16 13 -8 14
-15 0 -30 7 -33 16 -5 13 -1 14 25 9 23 -5 30 -4 24 5 -4 7 -22 10 -41 8 -23
-3 -34 0 -34 9 0 7 8 13 18 14 10 0 12 3 4 6 -6 2 -10 9 -6 14 3 5 -5 9 -18 9
-16 0 -19 3 -10 9 10 6 9 10 -7 14 -42 11 -20 24 34 19 31 -3 55 0 55 5 0 5
-13 8 -29 5 -16 -2 -37 1 -48 7 -16 9 -16 10 7 11 24 1 24 1 5 12 -11 6 -28
19 -38 30 -18 18 -18 19 10 12 l28 -7 -23 22 c-12 12 -20 27 -16 32 3 6 -2 20
-13 31 -10 12 -12 18 -5 14 6 -4 12 -2 12 3 0 6 -6 11 -14 11 -8 0 -16 6 -19
14 -4 9 0 12 12 9 12 -3 20 2 24 16 4 16 0 21 -15 21 -21 0 -21 0 0 19 12 10
19 21 15 25 -4 4 -8 13 -9 20 -1 10 6 12 34 5 20 -4 38 -6 40 -4 3 2 -9 7 -24
11 -52 12 -65 23 -55 43 7 12 6 22 -2 31 -10 10 -8 10 11 0 l23 -11 -17 28
-18 28 22 -19 c12 -11 22 -14 22 -8 0 6 -5 12 -12 14 -7 3 -8 9 -3 19 14 21
15 43 3 50 -6 4 -10 20 -10 35 0 16 -8 35 -17 42 -9 7 -11 11 -4 8 32 -17 55
29 30 62 -7 9 -6 11 7 6 13 -5 16 0 16 24 0 17 5 34 10 37 17 10 12 48 -5 42
-8 -4 -17 -2 -20 4 -4 5 -3 9 2 8 4 -1 17 -1 28 0 18 2 18 4 -7 26 -16 13 -24
27 -19 30 6 3 18 -4 29 -15 19 -20 19 -20 19 10 0 17 -6 30 -13 30 -6 0 -14 6
-17 13 -4 10 2 13 16 10 12 -2 29 1 37 7 13 9 13 11 0 20 -8 5 -11 10 -6 10 5
0 3 7 -4 15 -10 13 -9 15 11 15 23 1 23 1 5 15 -15 11 -16 15 -5 15 8 0 21 -6
28 -12 11 -11 11 -9 2 10 -6 12 -16 22 -22 22 -6 0 -7 5 -4 10 4 6 -1 25 -9
43 l-16 32 30 -32 c29 -33 54 -47 30 -18 -10 12 -9 15 4 15 17 0 38 38 28 54
-3 5 0 6 6 2 6 -3 13 3 17 14 3 11 11 20 16 20 6 0 5 -10 -2 -22z m-49 -49 c0
-6 -4 -7 -10 -4 -5 3 -10 11 -10 16 0 6 5 7 10 4 6 -3 10 -11 10 -16z m-70
-29 c0 -5 -2 -10 -4 -10 -3 0 -8 5 -11 10 -3 6 -1 10 4 10 6 0 11 -4 11 -10z
m2285 -100 c-3 -5 -11 -10 -16 -10 -6 0 -7 5 -4 10 3 6 11 10 16 10 6 0 7 -4
4 -10z m-2350 -200 c3 -5 2 -10 -4 -10 -5 0 -13 5 -16 10 -3 6 -2 10 4 10 5 0
13 -4 16 -10z m5 -34 c0 -2 -7 -7 -16 -10 -8 -3 -12 -2 -9 4 6 10 25 14 25 6z
m663 -31 c-3 -9 -8 -14 -10 -11 -3 3 -2 9 2 15 9 16 15 13 8 -4z m1797 -9 c0
-2 -17 -14 -37 -26 -28 -16 -33 -17 -23 -5 8 10 23 21 35 25 25 11 25 11 25 6z
m728 -59 c18 -19 52 -85 52 -102 0 -3 -6 -5 -14 -5 -8 0 -18 -5 -22 -11 -4 -7
0 -9 13 -5 16 5 19 0 20 -35 2 -53 -28 -114 -66 -133 -26 -14 -30 -14 -44 2
-48 55 -46 121 7 214 l36 63 -4 -82 c-2 -46 -2 -83 0 -83 1 0 8 26 14 58 7 31
17 60 23 64 6 4 -2 19 -21 38 -18 17 -32 33 -32 36 0 11 19 2 38 -19z m-2053
-65 c-10 -10 -16 -12 -13 -7 3 6 8 19 13 30 5 14 9 16 12 7 3 -8 -3 -21 -12
-30z m-1175 -43 c0 -6 7 -9 14 -6 10 4 13 1 9 -9 -7 -18 -10 -18 -35 6 -19 17
-19 20 -5 20 9 0 17 -5 17 -11z m2503 -36 c-7 -2 -19 -2 -25 0 -7 3 -2 5 12 5
14 0 19 -2 13 -5z m-28 -43 c-3 -5 -12 -10 -18 -10 -7 0 -6 4 3 10 19 12 23
12 15 0z m-12 -67 c-7 -2 -21 -2 -30 0 -10 3 -4 5 12 5 17 0 24 -2 18 -5z
m-56 -40 c-9 -9 -19 -14 -23 -11 -10 10 6 28 24 28 15 0 15 -1 -1 -17z m43
-53 c0 -7 -65 -50 -76 -50 -2 0 -4 4 -4 9 0 5 11 12 25 15 14 4 23 11 20 16
-3 6 -1 10 5 10 6 0 8 4 5 10 -3 6 1 7 9 4 9 -3 16 -10 16 -14z m45 10 c3 -5
-3 -10 -14 -10 -12 0 -21 5 -21 10 0 6 6 10 14 10 8 0 18 -4 21 -10z m22 -36
c-3 -3 -12 -4 -19 -1 -8 3 -5 6 6 6 11 1 17 -2 13 -5z m-87 -63 c0 -5 -9 -11
-21 -14 -16 -4 -18 -3 -8 9 13 16 29 19 29 5z m-20 -35 c0 -2 -7 -7 -16 -10
-8 -3 -12 -2 -9 4 6 10 25 14 25 6z m-246 -116 c-20 -38 -40 -70 -45 -70 -5 0
-9 2 -9 4 0 8 82 136 87 136 2 0 -12 -31 -33 -70z m1281 40 c10 -11 16 -20 13
-20 -3 0 -13 9 -23 20 -10 11 -16 20 -13 20 3 0 13 -9 23 -20z m-3086 -58 c11
-22 36 -60 55 -85 23 -30 31 -49 24 -53 -6 -4 -17 2 -25 12 -15 20 -83 150
-83 159 0 14 12 1 29 -33z m1825 1 c-9 -21 -20 -48 -25 -60 -5 -13 -13 -23
-20 -23 -12 0 -13 -2 24 68 32 60 45 69 21 15z m-1774 -165 c0 -38 -64 78 -84
152 -4 14 13 -13 38 -60 25 -47 46 -88 46 -92z m1938 161 c61 -15 83 -34 41
-35 -20 -1 -26 2 -17 7 9 6 5 9 -13 9 -15 0 -40 7 -55 15 -35 18 -20 19 44 4z
m-238 -65 c0 -16 -43 -74 -51 -68 -15 9 -10 26 13 51 21 22 38 30 38 17z m20
-39 c0 -25 -23 -65 -37 -65 -18 0 -16 16 4 51 19 31 33 38 33 14z m-83 -40 c5
-16 -22 -55 -39 -55 -18 0 -20 32 -2 50 23 23 33 24 41 5z m-1527 -64 c0 -4
-5 -13 -10 -21 -10 -16 -15 -11 -56 47 -28 39 -5 48 32 12 19 -18 34 -35 34
-38z m1742 49 c12 -11 19 -22 16 -25 -11 -11 -81 -18 -75 -8 4 6 -3 8 -19 5
-25 -4 -25 -5 -4 -19 11 -8 25 -11 30 -8 6 3 10 2 10 -3 0 -5 12 -7 28 -4 25
4 26 3 9 -10 -18 -13 -18 -15 1 -39 l20 -25 -49 1 c-27 0 -49 3 -49 7 0 5 12
8 27 8 14 0 24 3 21 6 -11 10 -67 13 -73 3 -4 -5 -17 -9 -30 -9 -38 0 -41 -20
-3 -21 23 -1 26 -3 11 -6 -13 -2 -23 -9 -23 -15 0 -6 10 -8 25 -4 30 8 34 -10
5 -19 -27 -9 -15 -25 18 -25 18 0 23 -3 14 -9 -10 -6 -10 -10 3 -21 24 -20 17
-30 -15 -19 -16 6 -28 16 -27 22 1 8 -16 11 -54 8 -34 -1 -60 2 -64 8 -3 6
-11 8 -17 5 -6 -4 13 -17 42 -28 30 -12 55 -27 58 -34 5 -17 -45 -15 -101 4
-48 16 -77 14 -77 -6 0 -7 6 -8 19 0 23 12 60 0 81 -25 14 -16 13 -17 -9 -10
-12 4 -34 8 -47 10 -21 2 -20 -2 17 -37 52 -51 43 -61 -13 -16 -66 53 -79 56
-23 5 28 -25 44 -46 36 -47 -11 0 -10 -5 4 -20 10 -11 13 -20 7 -20 -6 0 -20
17 -31 38 -20 39 -78 89 -89 77 -4 -4 -1 -10 7 -13 21 -7 61 -49 61 -63 0 -7
-9 -5 -22 7 l-23 19 19 -22 c10 -12 23 -21 28 -20 6 1 14 -8 19 -20 11 -30 1
-29 -32 3 l-27 26 9 -42 c13 -58 5 -61 -19 -8 -11 25 -15 46 -9 49 11 8 -3 37
-18 39 -5 2 -18 8 -28 15 -16 11 -13 16 35 53 29 22 71 59 92 81 35 36 42 39
55 27 17 -16 33 -19 71 -17 l25 2 -25 14 c-14 8 -37 14 -52 15 -16 0 -28 4
-28 8 0 14 22 31 35 26 7 -3 16 -1 20 5 4 7 0 8 -12 4 -17 -7 -17 -5 1 22 11
17 33 51 49 77 21 34 33 45 41 38 12 -9 55 -10 54 0 -2 27 35 27 64 0z m90
-10 c10 0 18 -4 18 -9 0 -14 -38 -1 -52 18 -10 13 -10 14 2 4 8 -7 22 -13 32
-13z m-1894 -43 c21 -31 28 -47 21 -58 -8 -12 -10 -12 -19 1 -38 56 -51 81
-45 90 9 14 8 15 43 -33z m1610 -11 c-12 -17 -23 -33 -24 -34 -1 -2 -8 6 -14
18 -10 18 -8 26 11 46 17 18 25 21 36 13 10 -9 9 -17 -9 -43z m-1978 30 c0 -3
-4 -8 -10 -11 -5 -3 -10 -1 -10 4 0 6 5 11 10 11 6 0 10 -2 10 -4z m1899 -9
c8 -10 3 -21 -23 -46 -34 -33 -34 -33 -45 -12 -10 18 -8 25 16 46 33 28 37 29
52 12z m328 -14 c-17 -4 -17 -6 -2 -29 19 -29 15 -30 -13 -5 -30 25 -27 41 6
40 18 -1 21 -3 9 -6z m-1707 -73 c0 -4 -6 -13 -14 -19 -11 -10 -22 -6 -50 19
-30 27 -34 35 -25 51 10 19 12 18 50 -11 21 -18 39 -35 39 -40z m1414 34 c6
-16 -2 -32 -39 -78 -16 -21 -17 -21 -34 11 -10 20 -8 26 21 53 38 34 44 36 52
14z m-115 -16 c13 -20 11 -24 -20 -50 -18 -15 -36 -28 -40 -28 -12 0 -31 54
-20 58 6 2 21 12 33 22 29 24 30 24 47 -2z m-1369 -32 c34 -31 37 -37 25 -53
-13 -17 -15 -17 -40 7 -33 31 -48 57 -40 70 9 15 14 13 55 -24z m134 -17 c40
-23 42 -27 23 -53 -13 -18 -16 -17 -55 9 -45 30 -48 35 -30 53 16 16 21 15 62
-9z m1146 -8 c16 -30 13 -38 -26 -61 -38 -24 -49 -20 -59 20 -5 22 -1 28 27
42 43 22 45 22 58 -1z m140 -33 c0 -3 -17 -20 -37 -37 l-38 -31 -14 30 c-14
30 -14 31 20 59 l34 30 17 -22 c10 -12 18 -25 18 -29z m235 11 c11 -17 -1 -21
-15 -4 -8 9 -8 15 -2 15 6 0 14 -5 17 -11z m-1562 -26 c23 -15 43 -28 45 -29
3 -2 -16 -43 -24 -53 -2 -2 -24 13 -49 33 -39 33 -43 39 -32 56 6 11 13 20 15
20 1 0 21 -12 45 -27z m175 -18 c2 -13 -9 -55 -14 -55 -10 0 -83 40 -88 48 -3
5 1 18 10 30 14 20 15 20 52 4 21 -9 39 -21 40 -27z m916 13 c10 -39 7 -44
-34 -63 -44 -20 -54 -16 -64 27 -6 24 -2 30 26 42 47 21 65 19 72 -6z m134
-23 c17 -37 16 -40 -29 -70 -44 -28 -54 -26 -64 17 -6 23 -2 30 32 52 48 31
47 31 61 1z m-927 -15 c20 0 23 -10 13 -47 -4 -14 -14 -23 -25 -23 -14 0 -93
26 -107 35 -1 1 3 16 9 33 l10 31 41 -15 c22 -8 49 -14 59 -14z m-715 12 c8
-5 4 -13 -12 -25 -13 -10 -24 -13 -24 -7 0 6 7 13 16 17 13 5 13 7 2 14 -7 5
-8 9 -3 9 6 0 15 -4 21 -8z m1401 -27 c6 -19 8 -37 5 -39 -18 -11 -111 -34
-116 -29 -3 4 -6 23 -6 43 0 34 3 37 38 47 61 17 68 16 79 -22z m-1340 0 c0
-8 -6 -15 -14 -15 -17 0 -17 17 0 23 6 3 12 6 13 6 0 1 1 -6 1 -14z m466 -6
c23 -12 43 -22 45 -24 3 -3 -19 -65 -24 -65 -4 0 -84 49 -93 56 -5 5 17 54 24
54 3 0 25 -10 48 -21z m340 -8 c4 -4 4 -22 1 -39 -7 -35 -19 -38 -87 -23 -49
12 -49 12 -36 49 10 30 11 31 62 25 29 -3 55 -9 60 -12z m402 -17 c3 -20 4
-38 1 -41 -6 -6 -98 -24 -102 -20 -2 1 -6 21 -10 44 l-6 42 38 4 c22 2 46 4
55 5 12 1 19 -9 24 -34z m273 -16 c12 -30 4 -40 -61 -69 -33 -15 -36 -12 -44
35 -5 35 -4 36 38 55 48 20 49 20 67 -21z m-538 -8 l0 -40 -58 0 c-32 0 -61 2
-63 5 -3 2 -3 20 -1 40 l4 35 59 0 59 0 0 -40z m140 1 l0 -39 -57 -4 c-32 -2
-60 -3 -63 -2 -3 1 -4 21 -2 43 l4 41 59 0 59 0 0 -39z m770 19 c0 -5 -2 -10
-4 -10 -3 0 -8 5 -11 10 -3 6 -1 10 4 10 6 0 11 -4 11 -10z m-1252 -25 c52
-17 53 -18 47 -48 -4 -18 -10 -35 -14 -39 -5 -6 -115 32 -127 44 -8 8 21 68
31 65 5 -2 34 -12 63 -22z m1205 12 c20 -10 23 -17 15 -25 -8 -8 -8 -15 2 -27
10 -12 10 -15 -3 -15 -18 0 -32 17 -32 40 0 8 -4 21 -8 28 -10 15 -5 15 26 -1z
m-1873 -11 c0 -2 -7 -7 -16 -10 -8 -3 -12 -2 -9 4 6 10 25 14 25 6z m1429 -33
c6 -21 7 -40 3 -44 -10 -9 -113 -42 -117 -37 -2 2 -7 22 -11 44 l-6 41 53 15
c30 9 57 16 61 17 4 0 12 -16 17 -36z m416 9 c-8 -8 -25 10 -19 20 4 6 9 5 15
-3 4 -7 6 -15 4 -17z m115 18 c0 -5 -4 -10 -9 -10 -6 0 -13 5 -16 10 -3 6 1
10 9 10 9 0 16 -4 16 -10z m-338 -27 c10 -9 18 -24 18 -35 0 -24 -32 -24 -49
1 -8 11 -21 17 -30 14 -10 -3 -7 4 8 16 28 25 30 25 53 4z m-777 -9 c17 -4 20
-11 17 -45 -3 -31 -8 -39 -24 -39 -18 0 -109 20 -116 25 -2 2 0 20 4 40 l7 37
46 -7 c25 -3 55 -9 66 -11z m447 -35 c2 -22 1 -42 -2 -44 -3 -2 -29 -7 -57
-10 -47 -7 -51 -6 -56 16 -15 55 -9 68 31 72 84 9 80 10 84 -34z m-1093 -1
c-7 -13 -14 -18 -16 -11 -3 9 -12 9 -29 2 -35 -13 -39 -12 -23 7 8 9 22 14 37
11 14 -3 26 1 29 10 3 7 8 12 10 9 3 -2 -1 -15 -8 -28z m784 22 c26 0 27 -2
27 -46 l0 -46 -67 7 c-38 4 -69 8 -71 10 -1 1 0 21 4 45 7 42 7 42 43 36 20
-3 48 -6 64 -6z m875 -8 c2 -7 -2 -10 -12 -6 -9 3 -16 11 -16 16 0 13 23 5 28
-10z m-698 -37 l0 -45 -70 0 -70 0 0 45 0 45 70 0 70 0 0 -45z m420 15 c8 -9
22 -15 30 -13 12 4 12 2 2 -5 -14 -9 -6 -66 8 -57 13 8 31 -45 20 -63 -8 -14
-9 -12 -10 10 0 17 -8 31 -20 38 -27 15 -26 0 4 -55 23 -40 24 -55 4 -55 -4 0
-8 9 -8 19 0 11 -4 23 -10 26 -5 3 -10 15 -10 26 0 10 -5 19 -11 19 -6 0 -9
-7 -5 -15 3 -8 1 -15 -4 -15 -6 0 -10 5 -10 10 0 6 -6 10 -14 10 -8 0 -23 16
-35 35 -11 19 -16 35 -10 35 5 0 14 -11 18 -24 11 -27 47 -41 55 -20 3 8 1 27
-5 42 -6 15 -10 29 -11 32 0 3 -4 12 -9 20 -7 11 -8 9 -4 -7 5 -19 3 -22 -12
-16 -17 7 -17 6 0 -11 9 -9 17 -26 17 -37 0 -17 -4 -15 -27 10 -16 16 -39 32
-53 36 -24 6 -24 5 -6 -9 11 -9 17 -16 13 -16 -4 0 0 -11 9 -25 10 -15 14 -34
10 -52 -5 -23 -12 -28 -36 -28 -16 -1 -26 3 -24 7 3 4 -4 15 -15 25 -11 9 -18
20 -16 24 3 4 -2 12 -10 19 -13 11 -14 10 -9 -5 5 -13 4 -16 -4 -11 -15 9 -16
-38 -1 -66 17 -31 4 -33 -34 -4 -39 30 -49 32 -40 9 5 -12 3 -14 -7 -8 -10 6
-12 4 -7 -9 4 -9 3 -14 -2 -11 -5 3 -12 -3 -14 -12 -3 -10 -5 -1 -6 20 -1 23
3 36 9 32 6 -4 10 7 10 25 0 17 4 29 9 26 5 -4 12 0 15 6 5 10 7 10 12 1 8
-18 24 -16 24 3 0 8 4 13 9 10 5 -3 11 1 15 9 9 24 23 17 48 -22 26 -43 58
-56 58 -24 0 26 -17 36 -23 14 -4 -15 -5 -14 -6 3 -2 42 -56 63 -101 41 -16
-9 -32 -12 -34 -8 -7 11 102 44 116 35 6 -4 8 -3 5 3 -8 12 20 26 34 17 5 -3
9 1 9 8 1 8 5 7 14 -5 11 -14 16 -15 22 -6 4 8 2 15 -5 17 -11 4 -11 6 0 13
18 11 50 1 69 -21z m230 5 c20 -24 6 -28 -15 -5 -10 11 -13 20 -8 20 6 0 16
-7 23 -15z m-1569 -39 c-8 -10 -9 -15 -1 -18 6 -2 -1 -15 -16 -28 l-28 -25 17
28 c18 28 11 36 -13 15 -8 -7 -2 2 14 19 28 31 52 39 27 9z m-71 11 c0 -2 -10
-12 -21 -23 -22 -19 -22 -19 -10 4 10 18 31 31 31 19z m1500 -7 c0 -5 -7 -10
-16 -10 -8 0 -12 5 -9 10 3 6 10 10 16 10 5 0 9 -4 9 -10z m20 -58 c0 -4 -4
-13 -9 -21 -9 -14 -31 -7 -31 10 0 6 5 7 10 4 6 -3 10 -1 10 4 0 6 -4 11 -10
11 -5 0 -10 5 -10 10 0 7 6 7 20 0 11 -6 20 -14 20 -18z m-1446 -17 c-4 -8
-10 -15 -15 -15 -4 0 -6 7 -3 15 4 8 10 15 15 15 4 0 6 -7 3 -15z m27 -18
c-10 -9 -11 -8 -5 6 3 10 9 15 12 12 3 -3 0 -11 -7 -18z m251 -9 c-7 -7 -12
-8 -12 -2 0 14 12 26 19 19 2 -3 -1 -11 -7 -17z m-132 4 c0 -5 -9 -17 -20 -27
-23 -21 -26 -14 -8 15 13 20 28 27 28 12z m156 -18 c-4 -9 -9 -15 -11 -12 -3
3 -3 13 1 22 4 9 9 15 11 12 3 -3 3 -13 -1 -22z m80 1 c-4 -38 -23 -53 -24
-18 0 31 5 43 18 43 5 0 7 -11 6 -25z m790 -22 c7 -21 11 -39 9 -41 -5 -5 -35
66 -35 81 0 18 13 -2 26 -40z m108 31 c3 -8 2 -12 -4 -9 -6 3 -10 10 -10 16 0
14 7 11 14 -7z m1623 -10 c42 -15 113 -83 113 -107 0 -7 9 -23 21 -36 30 -32
18 -48 -47 -67 -110 -32 -198 -8 -299 80 -56 49 -30 45 30 -5 69 -57 142 -86
142 -56 0 9 -10 12 -29 9 -17 -3 -28 0 -28 7 0 7 -4 10 -9 6 -5 -3 -15 1 -23
8 -7 8 -24 19 -36 26 -13 7 -20 17 -16 24 4 7 4 9 -1 5 -4 -4 -17 -2 -29 4
-28 16 -66 21 -148 21 -38 0 -68 3 -68 6 0 21 122 67 225 85 81 15 143 12 202
-10z m-1457 8 c0 -4 -9 -8 -20 -9 -11 -1 -20 2 -20 5 0 4 9 8 20 9 11 1 20 -2
20 -5z m-2170 -7 c0 -2 -11 -20 -24 -40 -14 -20 -23 -42 -20 -48 2 -7 -8 -20
-23 -29 -17 -11 -22 -18 -13 -18 9 0 21 5 27 11 16 16 14 -40 -3 -73 -19 -37
-63 -58 -119 -58 -37 0 -45 3 -45 18 0 10 11 29 25 42 17 16 25 34 25 57 0 19
4 32 10 28 10 -6 8 -91 -3 -102 -4 -3 -7 -1 -7 6 0 7 -5 9 -10 6 -6 -4 -8 -11
-4 -16 3 -5 0 -8 -7 -7 -6 2 -14 -3 -16 -9 -6 -16 12 -17 39 -2 13 7 18 7 14
1 -4 -7 4 -8 26 -1 18 5 34 9 36 9 2 0 0 6 -4 13 -4 6 -4 9 1 5 9 -9 35 9 35
24 0 5 -17 -3 -37 -16 -20 -14 -38 -24 -40 -23 -1 2 6 21 17 42 11 22 20 50
20 63 0 29 27 82 41 82 8 0 7 -5 -1 -15 -8 -10 -9 -15 -1 -15 6 0 17 13 26 29
16 31 17 31 -43 17 -26 -6 -31 -11 -22 -21 8 -9 8 -15 0 -20 -5 -3 -10 2 -10
12 0 15 -3 15 -22 -5 -17 -17 -20 -24 -10 -34 9 -9 12 -8 12 6 0 10 5 14 11
10 14 -8 6 -88 -11 -109 -18 -21 -22 -13 -10 19 7 20 6 34 -7 61 -20 41 -10
58 52 86 36 17 95 26 95 14z m2050 -9 c0 -3 -4 -8 -10 -11 -5 -3 -10 -1 -10 4
0 6 5 11 10 11 6 0 10 -2 10 -4z m-70 -45 c0 -11 -5 -10 -20 4 -11 10 -20 22
-20 27 0 4 9 3 20 -4 11 -7 20 -19 20 -27z m217 33 c-3 -3 -12 -4 -19 -1 -8 3
-5 6 6 6 11 1 17 -2 13 -5z m-1346 -27 c-10 -9 -11 -8 -5 6 3 10 9 15 12 12 3
-3 0 -11 -7 -18z m459 -12 c-7 -8 -17 -15 -23 -15 -5 0 -2 9 8 20 21 23 35 19
15 -5z m714 -8 c-3 -9 -11 -17 -17 -17 -8 0 -8 3 0 11 6 6 9 19 6 28 -4 12 -3
13 6 5 6 -6 9 -18 5 -27z m-824 -37 c-13 -69 -24 -80 -15 -15 8 58 14 80 20
73 3 -3 1 -29 -5 -58z m380 50 c0 -5 -5 -10 -11 -10 -5 0 -7 5 -4 10 3 6 8 10
11 10 2 0 4 -4 4 -10z m560 -4 c0 -15 -54 -39 -65 -28 -3 3 9 14 27 24 40 21
38 21 38 4z m33 -29 c-2 -4 -9 -5 -14 -2 -5 4 -9 0 -9 -9 0 -8 -7 -13 -17 -11
-10 2 -20 4 -23 4 -3 1 9 10 25 21 17 11 26 20 22 20 -5 0 -5 5 -1 12 8 13 25
-21 17 -35z m-1135 8 c-6 -14 -15 -25 -20 -25 -9 0 -4 14 15 38 15 19 18 14 5
-13z m461 -7 c0 -32 -1 -32 -10 -8 -8 20 -12 22 -19 10 -6 -9 -10 -10 -10 -3
0 9 25 31 38 33 1 0 2 -15 1 -32z m309 11 c15 -23 7 -62 -11 -56 -11 3 -18 77
-7 77 3 0 11 -9 18 -21z m92 -21 c0 -6 -7 -5 -15 2 -8 7 -15 17 -15 22 0 6 7
5 15 -2 8 -7 15 -17 15 -22z m-342 -16 c-14 -36 -28 -42 -28 -13 0 19 28 56
36 48 2 -2 -2 -18 -8 -35z m132 3 c0 -19 -4 -35 -9 -35 -5 0 -12 -10 -14 -22
-4 -20 -4 -20 -6 4 0 15 4 30 10 34 6 3 9 17 6 30 -2 13 0 24 4 24 5 0 9 -16
9 -35z m-560 9 c0 -8 -4 -12 -10 -9 -5 3 -10 10 -10 16 0 5 5 9 10 9 6 0 10
-7 10 -16z m152 -6 c-7 -7 -12 -8 -12 -2 0 14 12 26 19 19 2 -3 -1 -11 -7 -17z
m161 7 c-3 -9 -8 -14 -10 -11 -3 3 -2 9 2 15 9 16 15 13 8 -4z m-460 -15 c-3
-12 -8 -19 -11 -16 -5 6 5 36 12 36 2 0 2 -9 -1 -20z m609 -22 c-9 -9 -12 -7
-12 12 0 19 3 21 12 12 9 -9 9 -15 0 -24z m359 12 c5 0 9 -4 9 -10 0 -16 -26
-12 -41 7 -12 15 -12 16 4 10 10 -4 23 -7 28 -7z m-814 -22 c-3 -8 -6 -5 -6 6
-1 11 2 17 5 13 3 -3 4 -12 1 -19z m80 0 c-3 -8 -6 -5 -6 6 -1 11 2 17 5 13 3
-3 4 -12 1 -19z m143 13 c0 -10 -30 -24 -37 -17 -3 3 -2 9 2 15 8 13 35 15 35
2z m-270 -7 c0 -10 -33 -33 -47 -34 -9 0 -7 7 5 19 17 19 42 27 42 15z m320
-33 c0 -18 -18 -41 -32 -41 -4 0 -8 10 -8 23 0 16 3 18 9 8 11 -18 23 2 14 25
-4 12 -3 15 5 10 7 -4 12 -15 12 -25z m45 -15 c-10 -14 -21 -23 -27 -20 -5 4
-5 11 1 18 6 7 7 17 3 21 -4 5 -1 5 6 1 7 -4 15 0 19 10 4 10 8 13 10 7 3 -7
-3 -23 -12 -37z m47 22 c-7 -7 -12 -8 -12 -2 0 6 3 14 7 17 3 4 9 5 12 2 2 -3
-1 -11 -7 -17z m-50 -70 c-7 -7 -12 -8 -12 -2 0 6 3 14 7 17 3 4 9 5 12 2 2
-3 -1 -11 -7 -17z m773 2 c-3 -5 -11 -10 -16 -10 -6 0 -7 5 -4 10 3 6 11 10
16 10 6 0 7 -4 4 -10z m45 -9 c0 -5 -7 -12 -16 -15 -14 -5 -15 -4 -4 9 14 17
20 19 20 6z m50 -131 c0 -5 -4 -10 -10 -10 -5 0 -10 5 -10 10 0 6 5 10 10 10
6 0 10 -4 10 -10z m60 -10 c-6 -11 -13 -20 -16 -20 -2 0 0 9 6 20 6 11 13 20
16 20 2 0 0 -9 -6 -20z m60 -124 c0 -3 -4 -8 -10 -11 -5 -3 -10 -1 -10 4 0 6
5 11 10 11 6 0 10 -2 10 -4z m1303 -71 c-3 -9 -8 -14 -10 -11 -3 3 -2 9 2 15
9 16 15 13 8 -4z m-38 -75 c-14 -27 -28 -50 -30 -50 -3 0 6 23 20 50 14 28 28
50 30 50 3 0 -6 -22 -20 -50z m-75 -110 c-17 -22 -34 -40 -36 -40 -8 0 51 79
59 80 5 0 -6 -18 -23 -40z m-1120 -60 c13 -9 13 -10 0 -10 -8 0 -22 5 -30 10
-13 9 -13 10 0 10 8 0 22 -5 30 -10z m1068 -7 c-131 -153 -248 -324 -323 -470
-25 -48 -45 -81 -45 -73 1 15 9 31 63 130 15 28 25 56 21 62 -4 6 -3 8 3 5 10
-6 73 84 73 103 0 5 4 10 8 12 4 2 19 19 32 38 37 52 170 210 177 210 3 0 -1
-8 -9 -17z m-1278 -81 c0 -5 -7 -9 -15 -9 -8 0 -12 4 -9 9 3 4 9 8 15 8 5 0 9
-4 9 -8z m-792 -20 c2 -7 -2 -10 -12 -6 -9 3 -16 11 -16 16 0 13 23 5 28 -10z
m122 4 c0 -2 -9 -6 -20 -9 -11 -3 -18 -1 -14 4 5 9 34 13 34 5z m-875 -16
c-27 -12 -43 -12 -25 0 8 5 22 9 30 9 10 0 8 -3 -5 -9z m5 -30 c-8 -6 -22 -10
-30 -9 -9 0 -5 6 10 14 27 14 44 10 20 -5z m350 -9 c-6 -12 -15 -21 -21 -21
-5 0 -2 11 7 25 20 30 31 26 14 -4z m2703 -6 c-3 -9 -8 -14 -10 -11 -3 3 -2 9
2 15 9 16 15 13 8 -4z m-2238 -15 c27 -30 12 -34 -15 -5 -13 14 -19 25 -13 25
5 0 18 -9 28 -20z m-625 -24 c0 -2 -14 -9 -32 -15 -31 -11 -31 -11 -13 9 19
21 19 21 -8 11 -15 -6 -27 -8 -27 -5 0 11 46 21 63 12 9 -5 17 -10 17 -12z
m323 -46 c-7 -28 -13 -25 -13 6 0 14 4 23 9 20 5 -3 7 -15 4 -26z m-309 5 c-4
-8 -10 -12 -15 -9 -11 6 -2 24 11 24 5 0 7 -7 4 -15z m-34 -8 c0 -2 -9 -12
-20 -22 -24 -21 -27 -14 -4 9 15 15 24 20 24 13z m383 -9 c22 -17 12 -59 -11
-51 -11 5 -13 3 -7 -7 5 -8 4 -11 -3 -6 -13 8 -5 36 11 36 5 0 2 9 -8 20 -20
22 -8 27 18 8z m2022 2 c3 -5 1 -10 -4 -10 -6 0 -11 5 -11 10 0 6 2 10 4 10 3
0 8 -4 11 -10z m-565 -10 c8 -5 11 -10 5 -10 -5 0 -17 5 -25 10 -8 5 -10 10
-5 10 6 0 17 -5 25 -10z m180 -95 c50 -30 110 -72 132 -93 82 -73 128 -119
128 -127 0 -4 -30 21 -68 56 -75 72 -162 138 -243 186 -30 18 -51 32 -47 33 4
0 48 -25 98 -55z m-1636 0 l27 -25 -43 0 c-33 1 -39 3 -26 11 10 5 15 16 12
24 -9 21 -1 19 30 -10z m1291 -123 c-3 -3 -11 0 -18 7 -9 10 -8 11 6 5 10 -3
15 -9 12 -12z m-2298 -48 c-3 -3 -12 -4 -19 -1 -8 3 -5 6 6 6 11 1 17 -2 13
-5z m1436 -21 c-7 -2 -21 -2 -30 0 -10 3 -4 5 12 5 17 0 24 -2 18 -5z m-2564
-37 c12 -13 13 -18 2 -28 -10 -11 -11 -10 -6 4 5 13 -2 19 -36 28 -23 6 -58 9
-78 5 -43 -8 -111 -42 -111 -55 0 -6 -5 -10 -12 -10 -23 0 35 50 76 64 50 19
142 14 165 -8z m-101 -40 c-49 -36 -62 -154 -33 -277 21 -89 19 -136 -9 -194
-23 -49 -81 -115 -74 -85 2 8 10 21 18 28 13 11 9 12 -20 8 l-35 -6 32 13 c36
13 73 45 40 33 -11 -3 -31 -9 -45 -12 -26 -6 -26 -5 3 11 38 20 64 45 48 45
-7 0 -15 -4 -18 -10 -3 -5 -14 -10 -23 -10 -11 0 -7 7 15 22 17 13 36 31 42
41 7 11 -4 6 -30 -13 -56 -40 -65 -38 -24 7 34 37 40 58 10 33 -29 -24 -25 -4
8 36 l32 39 -35 -26 c-54 -39 -57 -40 -63 -18 -4 15 -2 18 7 10 9 -8 19 -4 36
14 13 14 18 25 12 25 -6 0 -14 -4 -17 -10 -9 -15 -22 -12 -22 6 0 9 11 23 24
31 29 19 31 38 2 23 -33 -18 -36 -1 -4 25 17 13 25 24 18 25 -6 0 -14 -4 -17
-9 -3 -5 -15 -11 -26 -14 -17 -4 -19 -3 -9 9 6 8 8 14 3 14 -5 1 3 8 19 16 34
19 36 37 2 24 -19 -7 -23 -6 -19 5 3 8 14 17 24 20 10 3 23 12 29 19 9 11 6
12 -16 9 -27 -4 -27 -4 -9 11 11 9 26 16 33 16 7 0 13 5 13 11 0 6 -7 9 -15 5
-8 -3 -15 -1 -15 4 0 6 17 10 37 10 36 0 37 12 3 23 -8 2 -4 3 10 1 14 -1 34
4 44 12 11 8 22 14 25 14 3 0 -2 -7 -11 -14z m3717 -6 c10 -11 16 -20 13 -20
-3 0 -13 9 -23 20 -10 11 -16 20 -13 20 3 0 13 -9 23 -20z m-3678 -12 c-2 -7
0 -22 5 -33 7 -15 5 -14 -10 4 -12 14 -22 20 -26 13 -3 -6 -3 -12 1 -14 13 -5
65 -108 55 -108 -12 0 -52 56 -52 74 0 8 -4 18 -10 21 -16 10 -12 -12 9 -54
22 -42 46 -65 59 -57 5 3 9 0 9 -7 0 -7 4 -20 8 -31 7 -17 6 -17 -18 -4 -15 7
-38 29 -52 48 -14 18 -25 29 -25 24 0 -18 71 -94 87 -94 9 0 13 -3 10 -7 -4
-3 -2 -12 4 -19 15 -18 -6 -27 -33 -14 -13 7 -34 24 -46 38 -20 23 -22 23 -13
5 12 -24 71 -73 89 -73 6 0 10 -9 9 -20 -1 -21 -21 -27 -32 -10 -3 5 -16 15
-28 21 -14 6 -8 -3 16 -25 37 -36 48 -54 25 -40 -7 4 -4 -2 6 -14 28 -32 12
-27 -31 11 -38 32 -31 18 16 -37 15 -16 20 -26 12 -21 -10 6 -11 2 -6 -15 6
-19 2 -17 -24 11 l-32 34 16 -33 c20 -41 10 -60 -16 -30 l-19 23 10 -28 c14
-39 12 -55 -4 -34 -13 16 -14 16 -20 1 -4 -10 -1 -21 6 -26 7 -4 8 -8 3 -8 -6
0 -17 6 -23 12 -10 10 -15 10 -23 -2 -13 -18 -9 -9 19 53 26 57 28 114 7 212
-28 132 -16 223 34 250 32 18 34 18 28 3z m2606 5 c-7 -2 -19 -2 -25 0 -7 3
-2 5 12 5 14 0 19 -2 13 -5z m87 2 c0 -3 -15 -14 -32 -25 -43 -26 -19 -26 28
0 20 12 39 19 42 15 3 -3 0 -5 -6 -5 -27 0 -9 -18 23 -24 l36 -7 -21 -29 c-16
-23 -18 -28 -6 -24 9 3 16 10 16 15 0 5 11 9 24 9 14 0 28 5 31 10 3 6 13 10
21 10 8 0 12 -5 9 -10 -4 -6 -10 -8 -15 -5 -5 3 -14 -4 -20 -15 -6 -11 -15
-18 -19 -16 -10 7 -51 -22 -51 -36 0 -6 11 -3 25 6 16 10 25 12 25 5 0 -6 7
-9 15 -5 8 3 19 -2 24 -12 6 -9 11 -12 11 -5 0 6 -4 15 -10 18 -13 8 -13 45 0
45 5 0 6 -8 3 -17 -6 -15 -4 -16 9 -5 13 11 15 7 14 -25 -1 -27 3 -37 12 -35
10 2 12 -4 7 -20 -9 -30 -17 -36 -22 -20 -7 20 -22 14 -16 -7 3 -10 0 -22 -6
-25 -6 -4 -11 -12 -11 -18 0 -6 9 -1 20 12 l20 23 0 -22 c0 -12 -5 -31 -11
-42 -8 -16 -13 -18 -25 -8 -14 11 -18 -5 -17 -73 0 -10 -3 -18 -5 -18 -3 0
-14 8 -25 18 -19 17 -19 16 -15 -20 2 -22 0 -36 -7 -35 -5 1 -9 -8 -7 -20 2
-13 -2 -23 -7 -23 -6 0 -12 12 -12 28 -2 24 -2 24 -6 4 -3 -13 0 -29 6 -36 13
-15 12 -84 -2 -111 -5 -10 -10 -32 -9 -48 1 -24 -2 -26 -14 -16 -8 6 -14 8
-14 3 0 -17 15 -31 38 -38 26 -8 29 -21 7 -30 -13 -5 -14 -10 -4 -27 10 -20 9
-21 -15 -17 -15 3 -29 1 -32 -4 -3 -4 -2 -8 3 -7 22 3 51 -14 46 -28 -3 -8
-11 -12 -18 -9 -7 2 -16 -5 -19 -17 -3 -12 -1 -23 4 -25 6 -2 6 -10 0 -22 -8
-15 -4 -19 26 -24 19 -4 38 -14 41 -22 3 -8 12 -13 19 -10 8 3 11 0 8 -8 -3
-8 0 -17 7 -21 8 -6 4 -12 -12 -21 l-24 -12 27 -7 c16 -4 25 -12 22 -20 -3 -7
3 -15 13 -18 13 -3 11 -5 -7 -6 -20 -1 -22 -3 -10 -11 8 -5 25 -10 36 -10 14
0 24 -8 27 -21 5 -17 12 -21 36 -17 31 4 43 -6 19 -15 -8 -3 -6 -6 5 -6 9 -1
17 -8 17 -17 0 -12 -7 -14 -32 -9 -29 7 -30 6 -16 -8 12 -13 23 -14 47 -7 34
9 37 10 49 10 5 0 14 10 21 23 l12 22 -5 -22 c-3 -19 0 -23 20 -23 21 0 23 3
14 19 -13 25 -13 41 1 41 6 0 13 -9 16 -19 3 -12 11 -17 20 -14 8 3 12 12 8
21 -4 12 -3 13 10 2 13 -11 19 -9 35 10 11 13 20 27 20 32 0 5 4 7 10 3 5 -3
19 4 31 16 21 21 21 23 5 35 -15 11 -14 13 14 19 30 6 30 8 15 25 -15 16 -15
19 -1 27 23 12 -39 83 -79 89 -73 12 -100 4 -100 -29 -1 -15 -6 -32 -13 -39
-14 -14 -16 -42 -2 -33 5 3 7 0 4 -8 -3 -8 0 -18 5 -22 6 -3 9 -11 6 -16 -10
-15 -55 -10 -73 7 -15 15 -14 16 6 10 18 -6 22 -3 22 14 0 17 -4 20 -20 15
-16 -5 -20 -2 -20 17 0 13 -2 34 -5 48 -3 14 1 7 8 -14 8 -25 16 -35 21 -28 4
7 4 17 1 23 -4 6 2 17 14 25 12 8 21 20 21 26 0 6 -8 3 -19 -6 -17 -16 -19
-16 -24 4 -3 11 -1 18 4 14 5 -3 9 -1 9 4 0 6 14 15 30 21 17 5 30 15 30 21 0
6 8 10 18 8 9 -1 23 1 30 6 7 4 19 3 26 -3 10 -9 15 -8 19 3 7 18 47 10 65
-12 11 -14 12 -14 12 1 0 9 5 17 10 17 6 0 10 -4 10 -10 0 -5 7 -10 15 -10 8
0 15 -5 15 -11 0 -6 7 -9 15 -5 9 3 15 0 15 -9 0 -9 6 -12 15 -9 11 5 13 2 9
-10 -4 -12 0 -16 16 -16 16 0 20 -4 16 -15 -3 -8 -1 -15 5 -15 6 0 6 -7 -1
-19 -14 -27 -13 -31 10 -31 24 0 24 -3 5 -40 -14 -27 -5 -44 10 -20 8 13 25
13 25 -1 0 -6 -9 -13 -19 -16 -22 -6 -35 -29 -21 -38 16 -10 -19 -68 -36 -61
-8 3 -14 1 -14 -4 0 -6 7 -10 15 -10 9 0 15 -9 15 -22 0 -18 -2 -20 -10 -8 -7
12 -11 10 -18 -10 -5 -14 -13 -24 -18 -24 -19 3 -34 -9 -34 -26 0 -24 -13 -32
-59 -35 -20 -2 -49 -10 -66 -19 -18 -10 -42 -14 -60 -10 -24 4 -27 3 -15 -6
12 -9 7 -10 -20 -6 -19 3 -29 3 -22 0 6 -3 12 -10 12 -16 0 -6 -7 -7 -17 -2
-10 4 -37 8 -61 9 -42 2 -42 2 -25 -18 18 -19 17 -20 -4 -8 -13 6 -23 19 -23
28 0 16 -1 16 -16 2 -14 -14 -18 -13 -46 13 -29 27 -56 38 -43 18 9 -15 -48 0
-57 14 -5 6 -8 2 -8 -10 0 -12 7 -25 16 -28 9 -4 14 -9 11 -13 -4 -3 -18 2
-31 11 -31 19 -56 22 -38 4 7 -7 12 -16 12 -21 0 -14 -47 38 -64 71 -13 23
-15 24 -16 7 -1 -19 -1 -19 -11 -2 -6 9 -15 15 -20 11 -6 -3 -7 4 -3 19 3 14
1 34 -6 44 -10 15 -11 14 -7 -12 3 -16 1 -39 -3 -50 -7 -17 -9 -15 -9 12 -1
19 -8 37 -19 45 -10 7 -22 26 -26 42 -5 22 -10 26 -16 16 -4 -7 -6 -19 -4 -25
3 -7 -2 -15 -11 -19 -10 -3 -14 -2 -10 5 4 6 -1 19 -11 30 -13 14 -14 18 -3
14 10 -4 15 2 17 20 l2 26 -23 -23 c-24 -25 -58 -39 -40 -16 11 12 17 41 14
63 -1 6 -6 3 -11 -5 -8 -13 -10 -12 -10 3 0 10 -4 15 -10 12 -5 -3 -10 1 -10
9 0 9 5 16 10 16 6 0 10 7 10 15 0 22 -17 18 -30 -5 -17 -31 -32 -14 -16 18 7
15 16 42 20 61 l6 34 -20 -23 c-11 -13 -23 -20 -27 -16 -4 4 -3 10 2 14 11 7
35 57 35 70 -1 4 -10 -4 -21 -17 -28 -34 -34 -20 -11 28 12 23 16 43 11 47 -5
3 -9 2 -8 -3 5 -17 -25 -63 -40 -63 -14 0 -14 2 -1 11 12 8 12 12 2 16 -10 4
-9 8 5 19 15 11 16 15 4 23 -12 7 -12 13 -3 24 7 7 9 17 5 20 -3 4 -1 7 5 7 7
0 12 5 12 10 0 6 -7 10 -16 10 -14 0 -14 1 0 16 9 8 16 18 16 22 0 3 -5 1 -12
-6 -23 -23 -31 -12 -9 11 13 15 19 30 15 40 -4 11 -1 17 7 17 11 0 11 2 1 8
-9 7 -10 15 -3 35 7 19 7 27 0 27 -6 0 -7 5 -3 11 3 6 0 15 -7 20 -10 6 -5 9
16 10 17 1 22 3 13 6 -10 2 -18 9 -18 14 0 6 9 7 20 4 14 -5 20 -2 20 9 0 9
-4 16 -10 16 -5 0 -10 4 -10 10 0 5 6 7 13 4 8 -3 20 2 27 11 12 14 12 16 -1
15 -37 -6 -41 1 -15 26 26 27 30 52 11 66 -6 4 -1 8 10 8 11 1 34 7 50 15 l30
15 -40 -5 c-22 -3 -47 -1 -55 5 -8 5 -10 10 -5 10 6 0 3 5 -5 11 -12 8 -10 9
10 5 31 -6 72 3 64 15 -3 5 4 9 15 9 12 0 21 4 21 10 0 5 -6 7 -14 4 -8 -3
-17 -1 -21 5 -3 6 -1 11 5 11 6 0 9 4 5 10 -3 5 -12 7 -20 3 -8 -3 -15 0 -15
6 0 6 12 11 28 12 l27 1 -30 13 c-26 12 -27 14 -8 15 31 0 53 10 53 24 0 6 14
17 30 24 38 17 39 31 3 24 -16 -2 -26 -2 -23 1 3 3 16 7 30 9 14 1 41 11 60
20 37 18 50 21 50 13z m-2660 -75 c0 -5 -4 -10 -10 -10 -5 0 -10 5 -10 10 0 6
5 10 10 10 6 0 10 -4 10 -10z m2893 -45 c-3 -9 -8 -14 -10 -11 -3 3 -2 9 2 15
9 16 15 13 8 -4z m-2870 -15 c3 -11 1 -18 -4 -14 -5 3 -9 12 -9 20 0 20 7 17
13 -6z m2867 -40 c-6 -11 -13 -20 -16 -20 -2 0 0 9 6 20 6 11 13 20 16 20 2 0
0 -9 -6 -20z m654 -89 c-5 -5 -63 43 -63 52 -1 5 14 -4 32 -20 19 -15 33 -30
31 -32z m506 -46 c30 -30 52 -55 49 -55 -2 0 -29 25 -59 55 -30 30 -52 55 -49
55 2 0 29 -25 59 -55z m-444 -7 c80 -87 180 -243 198 -308 4 -14 -11 10 -34
53 -65 125 -90 160 -186 260 -20 20 -32 37 -27 37 6 0 27 -19 49 -42z m-3819
-80 c-3 -7 -5 -2 -5 12 0 14 2 19 5 13 2 -7 2 -19 0 -25z m2986 -26 c-6 -13
-8 -13 -14 4 -4 10 -8 26 -8 34 0 12 3 11 14 -3 7 -11 11 -26 8 -35z m1371 2
c3 -8 2 -12 -4 -9 -6 3 -10 10 -10 16 0 14 7 11 14 -7z m-4113 -63 c-26 -36
-83 -82 -136 -109 -57 -28 -171 -62 -211 -62 l-34 0 40 40 c22 22 40 45 40 52
0 6 3 8 7 5 3 -4 -8 -25 -26 -47 -17 -22 -29 -40 -25 -40 12 0 129 31 159 42
51 19 159 95 180 127 11 16 21 28 23 26 2 -2 -5 -17 -17 -34z m2759 14 c0 -8
-2 -15 -4 -15 -2 0 -6 7 -10 15 -3 8 -1 15 4 15 6 0 10 -7 10 -15z m-40 -83
c0 -8 -1 -13 -3 -11 -1 2 -9 12 -16 22 -12 15 -12 17 3 11 9 -3 16 -13 16 -22z
m1487 -54 c-3 -7 -5 -2 -5 12 0 14 2 19 5 13 2 -7 2 -19 0 -25z m-1492 -28 c3
-5 1 -10 -4 -10 -6 0 -11 5 -11 10 0 6 2 10 4 10 3 0 8 -4 11 -10z m1492 -12
c-3 -8 -6 -5 -6 6 -1 11 2 17 5 13 3 -3 4 -12 1 -19z m-391 -102 c5 -28 4 -28
-10 8 -8 21 -17 50 -20 65 -4 21 -2 20 10 -8 8 -18 17 -47 20 -65z m11 -58
c-3 -8 -6 -5 -6 6 -1 11 2 17 5 13 3 -3 4 -12 1 -19z m10 -50 c-3 -7 -5 -2 -5
12 0 14 2 19 5 13 2 -7 2 -19 0 -25z m-1112 2 c0 -22 -21 -22 -22 1 -1 12 3
19 10 16 7 -2 12 -10 12 -17z m75 -144 c0 -3 -4 -8 -10 -11 -5 -3 -10 -1 -10
4 0 6 5 11 10 11 6 0 10 -2 10 -4z m150 -130 c0 -3 -4 -8 -10 -11 -5 -3 -10
-1 -10 4 0 6 5 11 10 11 6 0 10 -2 10 -4z m-360 -151 c0 -5 -5 -3 -10 5 -5 8
-10 20 -10 25 0 6 5 3 10 -5 5 -8 10 -19 10 -25z m1277 -92 c-2 -16 -4 -5 -4
22 0 28 2 40 4 28 2 -13 2 -35 0 -50z"/>
<path d="M3570 4571 c0 -20 27 -48 37 -38 3 4 -2 9 -11 13 -9 3 -16 10 -16 15
0 6 9 5 20 -1 28 -15 25 -5 -5 14 -24 16 -25 15 -25 -3z"/>
<path d="M1847 4559 c7 -7 15 -10 18 -7 3 3 -2 9 -12 12 -14 6 -15 5 -6 -5z"/>
<path d="M1565 4370 c3 -5 8 -10 11 -10 2 0 4 5 4 10 0 6 -5 10 -11 10 -5 0
-7 -4 -4 -10z"/>
<path d="M3874 4178 c-10 -13 -12 -17 -4 -10 24 21 31 13 13 -15 l-17 -28 27
24 c20 19 24 27 16 38 -14 17 -13 17 -35 -9z"/>
<path d="M2420 4161 c0 -6 5 -13 10 -16 6 -3 10 1 10 9 0 9 -4 16 -10 16 -5 0
-10 -4 -10 -9z"/>
<path d="M1535 4020 c10 -11 20 -20 23 -20 3 0 -3 9 -13 20 -10 11 -20 20 -23
20 -3 0 3 -9 13 -20z"/>
<path d="M2983 3973 c15 -2 39 -2 55 0 15 2 2 4 -28 4 -30 0 -43 -2 -27 -4z"/>
<path d="M2905 3960 c-8 -13 5 -13 25 0 13 8 13 10 -2 10 -9 0 -20 -4 -23 -10z"/>
<path d="M3155 3912 c21 -23 40 -42 42 -42 9 0 -24 38 -51 59 -26 21 -25 18 9
-17z"/>
<path d="M2839 3913 l-24 -28 30 25 c17 14 32 26 34 28 2 1 0 2 -6 2 -5 0 -20
-12 -34 -27z"/>
<path d="M2457 3910 c-153 -27 -185 -234 -47 -307 54 -29 94 -29 150 0 60 30
90 76 90 139 0 114 -84 186 -193 168z m-1 -65 c7 -18 -13 -45 -33 -45 -17 0
-27 24 -19 45 7 20 45 19 52 0z"/>
<path d="M2941 3909 c-148 -31 -176 -235 -41 -306 24 -13 57 -23 74 -23 46 0
117 40 143 79 43 64 24 178 -37 221 -35 25 -96 38 -139 29z m7 -75 c4 -27 -26
-40 -46 -20 -21 20 -8 48 20 44 14 -2 24 -11 26 -24z"/>
<path d="M1530 3902 c0 -6 9 -12 20 -15 11 -3 20 -3 20 -1 0 2 -9 8 -20 14
-11 6 -20 7 -20 2z"/>
<path d="M3637 3903 c-4 -3 -7 -11 -7 -17 0 -6 5 -5 12 2 6 6 9 14 7 17 -3 3
-9 2 -12 -2z"/>
<path d="M3777 3892 c-10 -10 -14 -22 -10 -25 3 -4 1 -7 -5 -7 -7 0 -12 -5
-12 -11 0 -8 5 -7 15 1 9 7 13 15 10 18 -3 3 2 14 12 24 9 10 14 18 11 18 -3
0 -12 -8 -21 -18z"/>
<path d="M1530 3861 c0 -5 7 -11 15 -15 8 -3 15 -1 15 3 0 5 -7 11 -15 15 -8
3 -15 1 -15 -3z"/>
<path d="M3200 3852 c1 -4 6 -17 14 -30 12 -22 13 -22 27 -6 13 16 12 17 -5
11 -13 -5 -17 -3 -13 7 3 8 -1 17 -9 20 -8 3 -14 2 -14 -2z"/>
<path d="M2241 3824 c0 -11 3 -14 6 -6 3 7 2 16 -1 19 -3 4 -6 -2 -5 -13z"/>
<path d="M3590 3829 c0 -5 5 -7 10 -4 6 3 10 8 10 11 0 2 -4 4 -10 4 -5 0 -10
-5 -10 -11z"/>
<path d="M1550 3810 c0 -5 5 -10 11 -10 5 0 7 5 4 10 -3 6 -8 10 -11 10 -2 0
-4 -4 -4 -10z"/>
<path d="M3604 3805 c-10 -8 -14 -15 -8 -15 6 0 17 7 24 15 16 19 9 19 -16 0z"/>
<path d="M2230 3785 c-12 -89 18 -167 84 -217 25 -20 41 -39 39 -48 -4 -12 -2
-12 5 -2 6 10 15 10 36 2 31 -11 88 -13 135 -4 51 11 127 86 151 151 11 31 19
60 18 65 -2 6 -12 -15 -21 -45 -52 -163 -245 -215 -370 -98 -42 38 -60 78 -67
151 -4 36 -8 56 -10 45z"/>
<path d="M2773 3750 c0 -30 2 -43 4 -27 2 15 2 39 0 55 -2 15 -4 2 -4 -28z"/>
<path d="M1524 3783 c4 -8 2 -13 -6 -13 -8 0 -6 -5 5 -11 29 -17 40 -5 16 16
-12 11 -19 14 -15 8z"/>
<path d="M3230 3752 c0 -93 -86 -201 -175 -220 -90 -19 -182 17 -236 91 -16
22 -29 34 -29 26 0 -28 60 -87 122 -118 55 -28 68 -31 113 -25 59 7 78 16 125
57 51 44 81 100 87 162 3 30 3 55 -1 55 -3 0 -6 -13 -6 -28z"/>
<path d="M3745 3760 c-3 -5 -1 -10 4 -10 6 0 11 5 11 10 0 6 -2 10 -4 10 -3 0
-8 -4 -11 -10z"/>
<path d="M3729 3724 c-9 -11 -10 -20 -3 -32 14 -22 34 -27 34 -8 0 9 -8 16
-17 16 -15 0 -15 1 2 13 11 9 14 16 8 20 -6 4 -17 0 -24 -9z"/>
<path d="M1545 3720 c3 -5 8 -10 11 -10 2 0 4 5 4 10 0 6 -5 10 -11 10 -5 0
-7 -4 -4 -10z"/>
<path d="M3615 3720 c-3 -5 -1 -10 4 -10 6 0 11 5 11 10 0 6 -2 10 -4 10 -3 0
-8 -4 -11 -10z"/>
<path d="M3560 3710 c20 -13 33 -13 25 0 -3 6 -14 10 -23 10 -15 0 -15 -2 -2
-10z"/>
<path d="M3290 3679 c0 -5 5 -7 10 -4 6 3 10 8 10 11 0 2 -4 4 -10 4 -5 0 -10
-5 -10 -11z"/>
<path d="M3595 3680 c-3 -5 -1 -10 4 -10 6 0 11 5 11 10 0 6 -2 10 -4 10 -3 0
-8 -4 -11 -10z"/>
<path d="M3710 3670 c0 -5 5 -10 11 -10 5 0 7 5 4 10 -3 6 -8 10 -11 10 -2 0
-4 -4 -4 -10z"/>
<path d="M3375 3650 c-3 -5 -1 -10 4 -10 6 0 11 5 11 10 0 6 -2 10 -4 10 -3 0
-8 -4 -11 -10z"/>
<path d="M3215 3620 c-3 -6 1 -7 9 -4 18 7 21 14 7 14 -6 0 -13 -4 -16 -10z"/>
<path d="M3255 3599 c-4 -6 -5 -12 -2 -15 2 -3 7 2 10 11 7 17 1 20 -8 4z"/>
<path d="M3693 3569 c10 -6 23 -6 33 -1 12 7 8 9 -18 10 -26 1 -30 -1 -15 -9z"/>
<path d="M3186 3555 c-16 -12 -17 -15 -4 -15 8 0 21 7 28 15 16 19 1 19 -24 0z"/>
<path d="M3360 3530 c0 -5 4 -10 9 -10 6 0 13 5 16 10 3 6 -1 10 -9 10 -9 0
-16 -4 -16 -10z"/>
<path d="M3756 3530 c-13 -4 -16 -9 -8 -14 7 -4 19 -3 28 2 21 12 5 22 -20 12z"/>
<path d="M2838 3508 c5 -5 16 -8 23 -6 8 3 3 7 -10 11 -17 4 -21 3 -13 -5z"/>
<path d="M2881 3506 c11 -9 69 -15 64 -6 -3 6 -20 10 -37 10 -17 0 -29 -2 -27
-4z"/>
<path d="M3109 3490 l-24 -20 28 11 c15 7 27 16 27 21 0 12 -5 10 -31 -12z"/>
<path d="M1638 3493 c7 -3 16 -2 19 1 4 3 -2 6 -13 5 -11 0 -14 -3 -6 -6z"/>
<path d="M2310 3491 c0 -6 4 -13 10 -16 6 -3 7 1 4 9 -7 18 -14 21 -14 7z"/>
<path d="M2580 3490 c-13 -8 -12 -10 3 -10 9 0 17 5 17 10 0 12 -1 12 -20 0z"/>
<path d="M3030 3493 c-14 -3 -29 -9 -34 -14 -16 -14 26 -10 54 6 26 15 23 16
-20 8z"/>
<path d="M2666 3471 c-3 -5 6 -8 20 -8 19 0 22 2 13 8 -18 11 -26 11 -33 0z"/>
<path d="M2948 3473 c7 -3 16 -2 19 1 4 3 -2 6 -13 5 -11 0 -14 -3 -6 -6z"/>
<path d="M1636 3455 c-11 -8 -16 -18 -13 -22 4 -3 16 3 27 15 23 25 15 29 -14
7z"/>
<path d="M2468 3463 c7 -3 16 -2 19 1 4 3 -2 6 -13 5 -11 0 -14 -3 -6 -6z"/>
<path d="M1680 3440 c0 -6 11 -9 25 -7 37 5 42 17 7 17 -18 0 -32 -5 -32 -10z"/>
<path d="M2950 3440 c-12 -8 -9 -10 13 -10 15 0 27 5 27 10 0 13 -20 13 -40 0z"/>
<path d="M1758 3433 c7 -3 16 -2 19 1 4 3 -2 6 -13 5 -11 0 -14 -3 -6 -6z"/>
<path d="M2676 3431 c-3 -4 13 -8 36 -9 47 -2 48 2 1 11 -18 4 -34 3 -37 -2z"/>
<path d="M3055 3420 c-7 -12 2 -12 30 0 19 8 19 9 -2 9 -12 1 -25 -3 -28 -9z"/>
<path d="M3018 3413 c7 -3 16 -2 19 1 4 3 -2 6 -13 5 -11 0 -14 -3 -6 -6z"/>
<path d="M2552 3395 c-10 -12 -10 -15 2 -15 7 0 16 7 20 15 7 19 -5 19 -22 0z"/>
<path d="M2632 3393 c-25 -10 -34 -53 -17 -79 15 -24 65 -34 65 -14 0 6 -8 10
-18 10 -18 0 -42 18 -42 32 0 4 9 12 21 18 36 20 67 -10 71 -67 2 -36 7 -49
21 -51 14 -3 17 5 17 51 0 46 3 55 24 66 18 10 29 10 45 2 11 -7 21 -15 21
-19 0 -14 -24 -32 -42 -32 -10 0 -18 -5 -18 -11 0 -21 54 -4 69 22 13 24 13
29 -2 53 -22 33 -71 36 -98 5 l-18 -21 -22 21 c-22 20 -49 25 -77 14z"/>
<path d="M2898 3393 c6 -2 18 -2 25 0 6 3 1 5 -13 5 -14 0 -19 -2 -12 -5z"/>
<path d="M3120 3390 c-9 -6 -10 -10 -3 -10 6 0 15 5 18 10 8 12 4 12 -15 0z"/>
<path d="M3245 3380 c-12 -4 -27 -16 -35 -26 -13 -17 -13 -18 0 -8 8 6 28 16
45 21 16 5 25 12 20 15 -6 3 -19 2 -30 -2z"/>
<path d="M2978 3363 c7 -3 16 -2 19 1 4 3 -2 6 -13 5 -11 0 -14 -3 -6 -6z"/>
<path d="M1725 3350 c-4 -6 6 -10 22 -10 22 0 25 2 13 10 -19 12 -27 12 -35 0z"/>
<path d="M3110 3329 c0 -5 5 -7 10 -4 6 3 10 8 10 11 0 2 -4 4 -10 4 -5 0 -10
-5 -10 -11z"/>
<path d="M3168 3323 c6 -2 18 -2 25 0 6 3 1 5 -13 5 -14 0 -19 -2 -12 -5z"/>
<path d="M1788 3283 c7 -3 16 -2 19 1 4 3 -2 6 -13 5 -11 0 -14 -3 -6 -6z"/>
<path d="M1835 3270 c-3 -5 3 -10 14 -10 12 0 21 5 21 10 0 6 -6 10 -14 10 -8
0 -18 -4 -21 -10z"/>
<path d="M1945 3270 c4 -6 11 -8 16 -5 14 9 11 15 -7 15 -8 0 -12 -5 -9 -10z"/>
<path d="M1875 3240 c-3 -6 1 -7 9 -4 18 7 21 14 7 14 -6 0 -13 -4 -16 -10z"/>
<path d="M2040 3191 c0 -6 4 -13 10 -16 6 -3 7 1 4 9 -7 18 -14 21 -14 7z"/>
<path d="M1982 3165 c-7 -8 -9 -15 -4 -15 5 0 15 7 22 15 16 19 -1 19 -18 0z"/>
<path d="M1940 3159 c0 -5 5 -7 10 -4 6 3 10 8 10 11 0 2 -4 4 -10 4 -5 0 -10
-5 -10 -11z"/>
<path d="M2040 3098 c-16 -7 -20 -12 -12 -15 8 -3 21 2 30 11 19 18 17 19 -18
4z"/>
<path d="M2087 3083 c-4 -3 -7 -11 -7 -17 0 -6 5 -5 12 2 6 6 9 14 7 17 -3 3
-9 2 -12 -2z"/>
<path d="M2146 3071 c-10 -15 22 -20 34 -5 10 11 9 14 -8 14 -12 0 -23 -4 -26
-9z"/>
<path d="M2237 3040 c4 -16 8 -18 20 -9 11 10 11 14 1 20 -21 14 -26 10 -21
-11z"/>
<path d="M2187 3043 c-4 -3 -7 -11 -7 -17 0 -6 5 -5 12 2 6 6 9 14 7 17 -3 3
-9 2 -12 -2z"/>
<path d="M2282 3009 c-7 -11 -11 -23 -9 -25 7 -7 29 24 25 36 -2 6 -9 1 -16
-11z"/>
<path d="M2180 2980 c0 -5 5 -10 11 -10 5 0 7 5 4 10 -3 6 -8 10 -11 10 -2 0
-4 -4 -4 -10z"/>
<path d="M2460 2961 c7 -25 6 -39 -3 -50 -9 -12 -9 -13 1 -7 6 4 12 3 12 -3 0
-5 -4 -13 -10 -16 -17 -10 -11 -25 10 -25 11 0 20 4 20 9 0 5 3 17 6 26 4 10
2 15 -7 13 -9 -2 -13 5 -11 22 2 14 -4 34 -12 45 -14 19 -15 18 -6 -14z"/>
<path d="M2287 2973 c-10 -9 -9 -23 2 -23 5 0 11 7 15 15 5 15 -5 20 -17 8z"/>
<path d="M2710 2946 c0 -21 11 -46 20 -46 13 0 8 35 -7 49 -10 9 -13 9 -13 -3z"/>
<path d="M2806 2945 c4 -8 11 -15 16 -15 6 0 5 6 -2 15 -7 8 -14 15 -16 15 -2
0 -1 -7 2 -15z"/>
<path d="M2357 2903 c-4 -3 -7 -11 -7 -17 0 -6 5 -5 12 2 6 6 9 14 7 17 -3 3
-9 2 -12 -2z"/>
<path d="M2820 2891 c0 -10 30 -24 37 -17 3 3 2 9 -2 15 -8 13 -35 15 -35 2z"/>
<path d="M2290 2720 c-13 -8 -13 -10 2 -10 9 0 20 5 23 10 8 13 -5 13 -25 0z"/>
<path d="M2532 2718 c-7 -7 -12 -20 -12 -30 0 -10 -6 -18 -14 -18 -7 0 -19 -7
-27 -16 -11 -13 -9 -14 17 -8 37 8 40 12 49 52 7 35 5 38 -13 20z"/>
<path d="M2795 2700 c-8 -16 -15 -37 -14 -47 0 -17 1 -17 8 1 6 17 10 15 29
-15 26 -40 29 -35 6 10 -9 19 -13 42 -10 56 9 34 0 31 -19 -5z"/>
<path d="M2828 2710 c-4 -13 18 -70 28 -70 5 0 -1 30 -13 60 -7 16 -11 20 -15
10z"/>
<path d="M2370 2700 c0 -5 4 -10 9 -10 6 0 13 5 16 10 3 6 -1 10 -9 10 -9 0
-16 -4 -16 -10z"/>
<path d="M3167 2691 c3 -11 13 -19 24 -18 18 1 18 2 -1 19 -24 23 -29 23 -23
-1z"/>
<path d="M3215 2700 c11 -5 29 -8 40 -8 16 0 15 2 -5 8 -34 11 -60 11 -35 0z"/>
<path d="M2732 2680 c0 -14 2 -19 5 -12 2 6 2 18 0 25 -3 6 -5 1 -5 -13z"/>
<path d="M2913 2693 c-20 -8 -15 -23 7 -23 11 0 20 -7 20 -15 0 -8 5 -15 10
-15 13 0 13 6 0 31 -12 21 -1 26 19 7 10 -11 11 -10 6 5 -7 16 -36 21 -62 10z"/>
<path d="M3140 2680 c-9 -6 -10 -10 -3 -10 6 0 15 5 18 10 8 12 4 12 -15 0z"/>
<path d="M2440 2670 c-9 -6 -10 -10 -3 -10 6 0 15 5 18 10 8 12 4 12 -15 0z"/>
<path d="M2305 2660 c-16 -7 -17 -9 -3 -9 9 -1 20 4 23 9 7 11 7 11 -20 0z"/>
<path d="M3043 2657 c-3 -5 -12 -6 -20 -3 -9 4 -13 1 -11 -6 3 -7 17 -15 33
-16 25 -3 27 -2 16 12 -12 15 -10 15 25 0 22 -9 43 -20 49 -25 5 -5 16 -9 25
-9 11 1 10 4 -5 12 -11 6 -28 18 -38 26 -19 17 -65 23 -74 9z"/>
<path d="M3165 2640 c16 -10 31 -17 34 -14 7 6 -32 33 -49 34 -8 0 -2 -9 15
-20z"/>
<path d="M2382 2640 c-45 -11 -52 -20 -14 -20 36 0 62 9 62 21 0 10 -2 10 -48
-1z"/>
<path d="M3260 2638 c-16 -7 -20 -12 -12 -15 8 -3 24 -1 35 5 12 6 29 13 37
15 8 3 4 5 -10 6 -14 0 -36 -5 -50 -11z"/>
<path d="M2256 2620 c6 -6 21 -6 39 -1 30 9 30 9 -9 10 -26 1 -37 -2 -30 -9z"/>
<path d="M3330 2620 c-13 -9 -13 -10 0 -11 8 -1 25 -3 37 -4 14 -1 20 2 16 11
-6 16 -31 18 -53 4z"/>
<path d="M3238 2603 c6 -2 18 -2 25 0 6 3 1 5 -13 5 -14 0 -19 -2 -12 -5z"/>
<path d="M2940 2581 c0 -5 7 -15 17 -22 15 -13 15 -12 4 9 -12 23 -21 28 -21
13z"/>
<path d="M2990 2575 c7 -9 15 -13 17 -11 7 7 -7 26 -19 26 -6 0 -6 -6 2 -15z"/>
<path d="M3045 2575 c30 -25 59 -39 51 -26 -4 6 -22 18 -39 27 -30 14 -31 14
-12 -1z"/>
<path d="M3270 2581 c-11 -8 -4 -11 30 -12 25 -1 48 -1 53 0 4 0 7 -3 7 -9 0
-5 19 -10 43 -9 l42 0 -50 15 c-77 22 -109 26 -125 15z"/>
<path d="M2283 2548 c8 -4 27 -3 43 1 26 8 25 9 -13 8 -25 -1 -37 -4 -30 -9z"/>
<path d="M3290 2550 c20 -13 33 -13 25 0 -3 6 -14 10 -23 10 -15 0 -15 -2 -2
-10z"/>
<path d="M3250 2530 c0 -5 12 -10 28 -10 21 0 24 2 12 10 -20 13 -40 13 -40 0z"/>
<path d="M3425 2500 c3 -5 16 -10 28 -10 18 0 19 2 7 10 -20 13 -43 13 -35 0z"/>
<path d="M3280 2470 c8 -5 20 -10 25 -10 6 0 3 5 -5 10 -8 5 -19 10 -25 10 -5
0 -3 -5 5 -10z"/>
<path d="M3423 2463 c9 -2 23 -2 30 0 6 3 -1 5 -18 5 -16 0 -22 -2 -12 -5z"/>
<path d="M3480 2460 c8 -5 22 -9 30 -9 10 0 8 3 -5 9 -27 12 -43 12 -25 0z"/>
<path d="M3473 2433 c9 -2 25 -2 35 0 9 3 1 5 -18 5 -19 0 -27 -2 -17 -5z"/>
<path d="M3480 2370 c20 -13 40 -13 40 0 0 6 -12 10 -27 10 -22 0 -25 -2 -13
-10z"/>
<path d="M2098 2103 c7 -3 16 -2 19 1 4 3 -2 6 -13 5 -11 0 -14 -3 -6 -6z"/>
<path d="M2777 2079 c7 -7 15 -10 18 -7 3 3 -2 9 -12 12 -14 6 -15 5 -6 -5z"/>
<path d="M2010 2070 c-9 -6 -10 -10 -3 -10 6 0 15 5 18 10 8 12 4 12 -15 0z"/>
<path d="M2690 2046 c0 -2 8 -10 18 -17 15 -13 16 -12 3 4 -13 16 -21 21 -21
13z"/>
<path d="M2219 1983 c0 -5 -2 -18 -3 -30 -2 -13 1 -23 5 -23 5 0 6 -13 3 -30
-9 -41 4 -38 22 5 18 43 18 46 -1 39 -14 -6 -19 5 -16 34 1 6 -1 12 -4 12 -3
0 -5 -3 -6 -7z"/>
<path d="M2160 1970 c-13 -8 -13 -10 2 -10 9 0 20 5 23 10 8 13 -5 13 -25 0z"/>
<path d="M3405 1960 c3 -5 14 -10 23 -10 15 0 15 2 2 10 -20 13 -33 13 -25 0z"/>
<path d="M2580 1954 c0 -6 7 -17 15 -24 8 -7 15 -9 15 -6 0 4 7 0 16 -8 23
-24 40 -19 19 4 -10 11 -23 19 -29 17 -6 -2 -16 3 -23 12 -7 9 -13 11 -13 5z"/>
<path d="M2550 1938 c0 -9 5 -20 10 -23 13 -8 13 5 0 25 -8 13 -10 13 -10 -2z"/>
<path d="M3300 1920 c6 -11 16 -20 22 -20 6 0 3 9 -7 20 -10 11 -20 20 -22 20
-2 0 1 -9 7 -20z"/>
<path d="M2400 1895 c-1 -5 -3 -18 -5 -27 -2 -10 1 -18 5 -18 16 0 21 20 11
37 -6 10 -11 14 -11 8z"/>
<path d="M4666 4158 c-8 -30 -7 -38 2 -38 4 0 8 14 9 30 3 36 -2 39 -11 8z"/>
<path d="M4731 4154 c0 -11 3 -14 6 -6 3 7 2 16 -1 19 -3 4 -6 -2 -5 -13z"/>
<path d="M4640 4115 c0 -15 18 -40 24 -34 3 3 -1 14 -9 25 -8 10 -14 15 -15 9z"/>
<path d="M4715 4079 c-11 -17 1 -21 15 -4 8 9 8 15 2 15 -6 0 -14 -5 -17 -11z"/>
<path d="M4723 4051 c-27 -23 -29 -32 -5 -25 13 4 11 0 -6 -15 -13 -11 -22
-23 -22 -28 1 -4 -3 -9 -9 -11 -6 -2 -8 14 -6 40 3 33 2 38 -5 21 -10 -25 -26
-30 -33 -10 -2 6 -7 9 -11 6 -9 -8 24 -79 37 -79 31 0 75 51 83 96 5 29 5 29
-23 5z"/>
<path d="M3608 3423 c7 -3 16 -2 19 1 4 3 -2 6 -13 5 -11 0 -14 -3 -6 -6z"/>
<path d="M3658 3388 c6 -6 18 -8 28 -6 14 3 12 5 -9 10 -19 3 -25 2 -19 -4z"/>
<path d="M3020 2933 c0 -5 5 -15 10 -23 8 -12 10 -11 10 8 0 12 -4 22 -10 22
-5 0 -10 -3 -10 -7z"/>
<path d="M4660 2899 c0 -5 4 -8 9 -4 6 3 14 -3 20 -12 10 -17 10 -17 11 0 0
18 26 24 32 8 2 -5 12 -3 22 5 18 13 15 14 -37 14 -33 0 -57 -4 -57 -11z"/>
<path d="M4590 2896 c0 -2 13 -6 29 -8 17 -2 28 -1 25 4 -5 8 -54 12 -54 4z"/>
<path d="M4782 2875 c0 -16 2 -22 5 -12 2 9 2 23 0 30 -3 6 -5 -1 -5 -18z"/>
<path d="M4838 2878 c30 -14 42 -26 42 -42 0 -16 2 -18 9 -7 7 11 11 10 19 -6
7 -12 7 -24 2 -29 -6 -6 -5 -15 0 -24 8 -13 10 -13 10 2 0 9 3 23 6 31 7 18
-39 64 -83 83 -49 21 -54 16 -5 -8z"/>
<path d="M4496 2865 c-53 -20 -59 -29 -15 -21 20 3 48 2 63 -4 15 -5 26 -6 26
0 0 4 -8 11 -17 13 -10 3 5 5 33 6 67 1 118 -17 200 -73 40 -28 77 -46 93 -45
23 1 22 2 -9 11 -19 5 -55 25 -81 44 -97 71 -215 99 -293 69z"/>
<path d="M4580 2839 c0 -5 5 -7 10 -4 6 3 10 8 10 11 0 2 -4 4 -10 4 -5 0 -10
-5 -10 -11z"/>
<path d="M4943 2763 c5 -7 -1 -14 -14 -18 -15 -5 -18 -10 -10 -15 8 -4 0 -10
-21 -14 -18 -3 -34 -2 -36 3 -3 10 -52 -10 -52 -21 0 -13 156 17 165 32 3 4
-5 16 -17 26 -12 11 -18 14 -15 7z"/>
<path d="M1136 2751 c-19 -7 -19 -8 2 -13 15 -4 22 -2 22 8 0 8 -1 14 -2 13
-2 0 -12 -4 -22 -8z"/>
<path d="M2935 1370 c-3 -6 1 -7 9 -4 18 7 21 14 7 14 -6 0 -13 -4 -16 -10z"/>
<path d="M3045 1370 c-3 -5 1 -10 9 -10 8 0 18 5 21 10 3 6 -1 10 -9 10 -8 0
-18 -4 -21 -10z"/>
<path d="M2886 1331 c-4 -5 3 -7 14 -4 23 6 26 13 6 13 -8 0 -17 -4 -20 -9z"/>
<path d="M3132 1270 c-8 -13 -8 -20 -2 -20 6 0 13 7 17 15 9 24 -1 27 -15 5z"/>
<path d="M3010 771 c0 -6 4 -13 10 -16 6 -3 7 1 4 9 -7 18 -14 21 -14 7z"/>
<path d="M2987 709 c7 -7 15 -10 18 -7 3 3 -2 9 -12 12 -14 6 -15 5 -6 -5z"/>
<path d="M2995 620 c3 -5 12 -7 20 -3 21 7 19 13 -6 13 -11 0 -18 -4 -14 -10z"/>
<path d="M3060 455 c0 -8 4 -15 9 -15 5 0 11 7 15 15 3 9 0 15 -9 15 -8 0 -15
-7 -15 -15z"/>
<path d="M3575 440 c3 -5 8 -10 11 -10 2 0 4 5 4 10 0 6 -5 10 -11 10 -5 0 -7
-4 -4 -10z"/>
<path d="M3100 429 c0 -5 5 -7 10 -4 6 3 10 8 10 11 0 2 -4 4 -10 4 -5 0 -10
-5 -10 -11z"/>
<path d="M3198 313 c7 -3 16 -2 19 1 4 3 -2 6 -13 5 -11 0 -14 -3 -6 -6z"/>
<path d="M3010 254 c0 -6 7 -19 16 -30 14 -18 14 -18 3 6 -14 31 -19 36 -19
24z"/>
</g>
</svg>
